<svg
  version="1.1"
  id="Layer_1"
  xmlns="http://www.w3.org/2000/svg"
  xmlns:xlink="http://www.w3.org/1999/xlink"
  x="0px"
  y="0px"
  viewBox="0 0 500 145"
  enable-background="new 0 0 500 145"
  xml:space="preserve"
  width="222" height="56"
>
<path
    fill="#0A090A"
    opacity="1.000000"
    stroke="none"
    d="
M117.170319,145.663315 
	C79.512764,146.000000 42.025410,145.962250 4.538512,146.074615 
	C1.666857,146.083206 0.898739,145.634293 0.907730,142.540390 
	C1.041362,96.556442 1.024626,50.571934 0.938302,4.587754 
	C0.933169,1.853475 1.177314,0.898245 4.410048,0.900470 
	C168.853989,1.013645 333.298004,1.008698 497.742004,0.925695 
	C500.494293,0.924306 501.085663,1.448239 501.078949,4.239998 
	C500.968018,50.390686 500.921021,96.542084 501.133881,142.692062 
	C501.153137,146.868454 499.071136,145.999084 496.809875,145.999100 
	C371.852356,146.000092 246.894836,146.000000 121.468658,146.000000 
	C119.953972,144.925644 118.795334,143.914276 119.112724,142.161163 
	C119.920807,137.697693 119.358185,133.192978 119.486946,128.708893 
	C119.583908,125.332253 121.157448,124.138435 124.554199,124.228767 
	C141.328873,124.674858 158.094238,125.350929 174.861511,125.990356 
	C182.323547,126.274925 189.337982,124.962082 195.450043,120.243713 
	C199.006683,117.498077 201.556580,114.057800 202.750702,109.797813 
	C204.670425,102.949219 207.304810,96.448662 210.145432,89.912880 
	C213.255814,82.756409 215.127747,75.023132 218.347092,67.821724 
	C218.909103,66.564606 219.575287,64.839233 217.956436,63.722652 
	C216.673935,62.838078 215.400055,63.569138 214.252014,64.278122 
	C211.560333,65.940407 208.596481,67.164955 205.991470,68.905952 
	C202.804916,71.035599 200.248123,70.316055 199.074707,67.236153 
	C196.003098,59.173973 190.007324,52.709805 187.234680,44.474712 
	C185.767899,40.118172 182.384232,36.655430 180.266907,32.487820 
	C178.246109,28.510199 175.887741,24.631737 174.139221,20.529701 
	C169.624588,9.938342 157.803207,4.255669 145.689072,6.536408 
	C134.185089,8.702271 122.687325,10.952162 111.079277,12.543263 
	C108.769463,12.859868 106.605919,13.784548 104.348831,14.339571 
	C102.860123,14.705648 100.528244,13.990167 100.272621,16.265568 
	C100.052116,18.228384 102.288979,18.672258 103.541855,19.640358 
	C105.389694,21.068192 107.583588,21.935106 109.634026,23.035421 
	C114.032982,25.396002 114.594963,27.259422 112.061371,31.350676 
	C103.244217,45.588638 94.452499,59.842297 85.529579,74.014793 
	C77.572449,86.653313 78.415184,97.727684 88.215584,109.115028 
	C97.427979,119.819130 106.467323,130.667694 115.539566,141.489334 
	C116.499359,142.634216 117.787201,143.552490 117.170319,145.663315 
z"
  />
<path
    fill="#010101"
    opacity="1.000000"
    stroke="none"
    d="
M117.399994,146.000000 
	C106.362221,133.239365 95.515892,120.645256 85.151405,107.666359 
	C76.570282,96.920677 76.366096,85.862709 83.748787,73.882324 
	C92.386856,59.864754 101.088531,45.886391 109.733810,31.873251 
	C112.766556,26.957468 112.508873,26.465708 107.284370,23.610987 
	C102.675766,21.092794 97.856949,18.869646 92.987358,14.905490 
	C99.210548,12.548769 105.018600,12.223033 110.586487,11.123484 
	C123.142197,8.643974 135.801849,6.696145 148.392883,4.388310 
	C157.221863,2.770024 169.621811,8.627544 173.832352,16.674932 
	C178.141724,24.911205 183.127762,32.884701 187.047318,41.185860 
	C190.585388,48.679100 196.149551,55.033382 198.505005,63.168892 
	C200.125717,68.766693 202.107025,69.177368 207.236847,66.365784 
	C211.320663,64.127495 215.325836,61.745876 219.371765,59.438110 
	C220.227417,58.950050 221.180893,58.238583 222.114288,58.950592 
	C223.093170,59.697292 222.482086,60.779762 222.242386,61.721138 
	C220.476639,68.655945 216.730270,74.839241 214.842590,81.766098 
	C212.283447,91.156929 206.818420,99.484909 204.660248,109.097824 
	C202.331314,119.471481 194.351196,124.131248 185.029175,126.827888 
	C179.376144,128.463181 173.520828,127.280945 167.732208,127.257614 
	C154.247253,127.203247 140.816879,126.084801 127.346466,125.889313 
	C122.155899,125.813980 120.538490,127.661469 120.934601,132.579041 
	C121.267784,136.715347 121.002159,140.899887 121.000809,145.531525 
	C119.933327,146.000000 118.866661,146.000000 117.399994,146.000000 
z"
  />
<path
    fill="#F6A800"
    opacity="1.000000"
    stroke="none"
    d="
M268.333832,70.888016 
	C266.358185,65.415398 268.808441,60.013119 267.608307,53.658527 
	C264.640076,58.352554 262.089996,62.478630 259.439117,66.538879 
	C258.069580,68.636520 257.375854,71.802734 253.769516,70.981468 
	C250.710953,70.284943 251.531464,67.384178 250.942566,65.386543 
	C249.871887,61.754570 249.091537,58.037006 247.810013,52.803104 
	C246.142868,57.684906 244.957764,61.128071 243.790955,64.577423 
	C241.390320,71.674286 241.394348,71.675644 233.375626,70.515259 
	C236.874237,60.258926 240.456284,50.094692 243.768448,39.843273 
	C244.764069,36.761734 246.975327,37.666122 248.985260,37.428265 
	C251.479965,37.133034 251.961685,38.692646 252.393982,40.657681 
	C253.596008,46.121265 254.950851,51.551228 256.553955,58.292240 
	C260.595520,51.819031 264.063629,46.285225 267.507294,40.736237 
	C268.559021,39.041546 269.409943,37.453457 271.936951,37.359188 
	C275.501678,37.226204 277.428101,37.691002 276.986511,42.121262 
	C276.245117,49.559601 276.165619,57.063931 275.808014,64.540504 
	C275.496704,71.049698 275.496918,71.049706 268.333832,70.888016 
z"
  />
<path
    fill="#C71C4A"
    opacity="1.000000"
    stroke="none"
    d="
M310.636017,85.410858 
	C316.666321,83.210098 322.419403,83.036186 328.089020,85.089088 
	C337.015533,88.321281 341.341644,97.676376 338.223267,106.612350 
	C335.931458,113.179878 330.678284,115.409592 324.521790,112.221100 
	C323.189392,111.531052 322.365601,111.265549 321.006714,112.121201 
	C316.839142,114.745491 312.778839,114.695969 309.371033,110.784065 
	C306.622101,107.628525 306.722351,102.165512 309.458771,98.186287 
	C312.253876,94.121750 316.103973,92.876572 320.802246,94.209946 
	C321.590088,94.433540 322.373383,95.269699 323.054108,95.161880 
	C325.056122,94.844810 327.542603,92.417610 328.697052,95.611000 
	C329.336456,97.379715 328.100067,99.791603 327.840454,101.929512 
	C327.547119,104.345207 325.356995,107.931229 329.175293,108.613724 
	C333.050629,109.306412 333.660370,105.357521 333.936005,102.398460 
	C334.921814,91.814758 323.913849,85.230980 312.696075,89.604088 
	C305.704285,92.329742 301.130249,100.266830 302.550201,107.209763 
	C304.012177,114.358513 310.201965,118.371826 318.807037,118.039749 
	C320.102325,117.989754 322.347565,116.033302 322.851318,118.790031 
	C323.367157,121.612686 321.097900,122.356506 318.801910,122.732193 
	C310.944946,124.017738 302.177490,119.498466 298.839020,112.428787 
	C295.327759,104.993248 297.624786,95.296394 304.474365,89.390198 
	C306.214386,87.889832 308.341766,86.838722 310.636017,85.410858 
z"
  />
<path
    fill="#CB1C4B"
    opacity="1.000000"
    stroke="none"
    d="
M350.506958,84.388992 
	C355.608337,80.898216 360.944153,80.106285 366.565674,80.972099 
	C371.061127,81.664490 374.724030,83.901031 377.216614,87.718559 
	C378.499908,89.684036 380.915283,92.846741 378.802704,94.094688 
	C376.449097,95.485016 372.577209,96.054741 369.828186,92.793030 
	C364.657623,86.658119 355.757263,87.961533 352.227753,95.196808 
	C350.034332,99.693253 350.867615,104.929604 354.193268,107.548271 
	C357.727112,110.330872 363.894043,109.847313 367.545319,106.488708 
	C368.514221,105.597458 369.331360,104.111229 370.428223,103.875481 
	C372.975464,103.327988 376.440857,102.422508 378.006012,104.279114 
	C379.411102,105.945847 376.826691,108.407654 375.393524,110.097221 
	C369.659241,116.857605 362.305328,119.085701 353.817230,116.842239 
	C344.812866,114.462326 339.954224,105.276306 342.472046,95.932556 
	C343.728027,91.271584 346.298340,87.470703 350.506958,84.388992 
z"
  />
<path
    fill="#CA1C4B"
    opacity="1.000000"
    stroke="none"
    d="
M392.990173,117.014603 
	C389.839355,117.013695 387.171539,116.892242 384.519592,117.045113 
	C381.759308,117.204224 380.568237,116.498734 381.212646,113.403053 
	C383.209869,103.808311 385.076752,94.184303 386.816071,84.539513 
	C387.246033,82.155357 388.086670,81.049370 390.634979,81.108910 
	C396.119934,81.237068 401.610199,81.119911 407.097809,81.163116 
	C408.487823,81.174049 410.551971,80.736961 410.115387,83.174477 
	C409.723480,85.362541 410.741211,88.644699 406.937378,88.887344 
	C404.121307,89.066994 401.263489,89.158798 398.464020,88.884308 
	C395.213837,88.565620 394.364014,90.413681 394.245850,92.967102 
	C394.094299,96.242027 396.712280,94.694191 398.163696,94.935600 
	C399.620209,95.177856 401.184509,94.786301 402.635345,95.044640 
	C404.244415,95.331154 407.113098,93.622353 406.977722,97.221573 
	C406.867279,100.158463 406.505585,102.984001 402.281738,102.502510 
	C400.148254,102.259300 397.952789,102.605789 395.803406,102.444771 
	C392.584106,102.203590 391.885376,104.117737 391.677429,106.724762 
	C391.390411,110.323090 394.131897,109.015419 395.789246,109.229538 
	C397.425201,109.440887 399.142487,109.074097 400.763336,109.336494 
	C402.488464,109.615768 405.604889,107.843948 405.228973,111.883125 
	C404.957031,114.805443 404.705780,117.619469 400.457947,117.066559 
	C398.168518,116.768578 395.808380,117.014221 392.990173,117.014603 
z"
  />
<path
    fill="#CA1C4B"
    opacity="1.000000"
    stroke="none"
    d="
M245.685028,117.417809 
	C241.139450,116.637245 237.684387,114.874763 235.906754,110.825279 
	C235.138184,109.074471 233.809967,106.412750 236.042877,105.624542 
	C238.352051,104.809402 241.581619,103.861115 243.773117,106.672493 
	C244.269775,107.309608 244.426208,108.233109 244.968018,108.809906 
	C246.660553,110.611832 248.824036,110.518753 250.991257,109.967636 
	C252.441895,109.598747 253.215927,108.561409 253.237244,107.055420 
	C253.269333,104.787407 251.483276,104.016922 249.875977,103.175735 
	C247.671387,102.021957 245.303726,101.141449 243.212189,99.817917 
	C238.821869,97.039719 237.336502,92.349640 239.358566,87.676414 
	C241.447861,82.847862 245.550766,80.974617 250.540375,80.714462 
	C255.579971,80.451714 260.274292,81.239700 263.068787,86.077675 
	C264.083191,87.833817 265.787384,90.660004 263.526642,91.703476 
	C261.417480,92.676987 257.878967,93.622963 255.872681,90.744453 
	C254.601639,88.920837 253.368149,87.736633 251.073029,87.978577 
	C249.668564,88.126633 248.453506,88.558960 247.907074,89.983521 
	C247.280228,91.617683 247.817230,93.024040 249.235977,93.861633 
	C251.230865,95.039352 253.343750,96.024345 255.438065,97.025017 
	C260.027771,99.218010 263.034760,102.339462 262.210724,107.915405 
	C261.494751,112.760117 258.092010,116.055817 252.514099,117.241447 
	C250.376526,117.695816 248.244614,117.874191 245.685028,117.417809 
z"
  />
<path
    fill="#F4A700"
    opacity="1.000000"
    stroke="none"
    d="
M292.610657,71.440407 
	C284.126404,69.227219 281.010925,64.382179 282.517303,56.229439 
	C283.422058,51.332920 284.688660,46.475323 285.186066,41.539108 
	C285.715729,36.282906 289.354034,37.064621 292.402161,37.563240 
	C295.997742,38.151402 293.758911,41.012333 293.518982,42.733334 
	C292.855408,47.493061 291.736267,52.187206 290.921539,56.928642 
	C290.360229,60.195580 290.968658,63.141102 294.796631,63.792736 
	C298.467102,64.417564 301.040253,62.461525 301.876312,58.995827 
	C303.237274,53.354092 304.156738,47.606709 305.304596,41.912395 
	C306.158997,37.673946 308.493134,36.374310 312.648285,37.410202 
	C314.670929,37.914463 314.295441,39.188835 314.046906,40.454952 
	C312.640747,47.618378 311.573730,54.879868 309.630981,61.897507 
	C307.725403,68.780914 301.671936,71.914337 292.610657,71.440407 
z"
  />
<path
    fill="#CC1C4B"
    opacity="1.000000"
    stroke="none"
    d="
M296.364929,95.991859 
	C293.982605,102.183388 289.396912,105.350143 283.523468,104.898209 
	C276.992340,104.395676 275.117828,107.313148 274.897736,112.952858 
	C274.813995,115.098305 274.417236,117.030266 271.238373,117.097008 
	C265.340179,117.220863 265.052155,117.135941 266.150543,111.348701 
	C267.788788,102.717354 269.572510,94.111412 271.051514,85.453186 
	C271.591400,82.292831 272.770569,80.781425 276.176086,81.093689 
	C279.470001,81.395729 282.840851,80.967606 286.112854,81.378326 
	C294.294128,82.405281 297.782593,87.345627 296.364929,95.991859 
z"
  />
<path
    fill="#F3A600"
    opacity="1.000000"
    stroke="none"
    d="
M358.149719,50.276848 
	C360.100372,50.279766 361.605408,50.174797 363.088989,50.308380 
	C364.800781,50.462505 367.500214,49.257076 367.009369,52.894161 
	C366.660126,55.482071 366.395844,57.898338 362.693115,57.411236 
	C360.570038,57.131943 358.365845,57.521782 356.222107,57.335232 
	C352.534424,57.014328 352.868683,59.849716 352.553680,61.963120 
	C352.087067,65.094070 354.662262,63.653847 355.928741,63.827251 
	C357.723083,64.072929 359.608917,63.679520 361.393616,63.957428 
	C362.824677,64.180260 365.586365,62.522686 365.389130,65.636650 
	C365.232819,68.104294 365.701599,71.482880 361.030762,71.117989 
	C355.745361,70.705093 350.401520,70.948280 345.086121,71.055901 
	C342.843323,71.101303 342.311279,70.463326 342.769806,68.194611 
	C344.643005,58.926460 346.375977,49.628448 348.021332,40.316826 
	C348.431549,37.995255 349.596252,37.356190 351.758331,37.396492 
	C356.741821,37.489388 361.728607,37.392342 366.713257,37.445980 
	C368.249908,37.462517 370.506866,36.951836 369.933990,39.733292 
	C369.518951,41.748310 370.335388,44.791656 366.657776,44.783962 
	C363.832886,44.778049 361.005096,44.875156 358.183868,44.776196 
	C355.941223,44.697533 355.427765,46.063595 355.104034,47.849384 
	C354.698364,50.087364 356.012299,50.343174 358.149719,50.276848 
z"
  />
<path
    fill="#F5A700"
    opacity="1.000000"
    stroke="none"
    d="
M331.529785,44.132858 
	C329.126129,43.792961 326.867798,43.470070 326.122040,45.960697 
	C325.267059,48.816132 327.771912,49.585045 329.637390,50.579933 
	C331.247711,51.438766 332.979584,52.076889 334.560791,52.981930 
	C341.644409,57.036415 341.639374,65.751877 334.584961,69.831108 
	C328.241943,73.498962 318.341461,71.640800 315.367767,66.068680 
	C314.427063,64.305969 312.696960,61.281086 314.848816,60.468475 
	C316.975983,59.665188 320.776154,58.098518 322.603668,61.963352 
	C323.593414,64.056564 325.245300,64.920227 327.401489,64.820084 
	C329.116516,64.740425 330.754700,64.237778 331.170410,62.221130 
	C331.533081,60.461864 330.530792,59.387474 329.088684,58.651756 
	C326.869659,57.519726 324.600067,56.483582 322.408447,55.301945 
	C319.238983,53.593086 317.292633,50.947800 317.395935,47.281723 
	C317.506805,43.345924 319.365601,40.307667 322.927826,38.423378 
	C329.213959,35.098202 337.970123,36.944382 340.643005,42.360603 
	C341.424194,43.943539 343.233032,46.557930 340.963928,47.521881 
	C338.920685,48.389862 335.810028,49.103699 333.677490,46.643318 
	C333.034454,45.901421 332.498566,45.066635 331.529785,44.132858 
z"
  />
<path
    fill="#050202"
    opacity="1.000000"
    stroke="none"
    d="
M119.002716,121.883942 
	C118.731987,122.058540 118.459167,122.047241 118.323067,122.036484 
	C116.156784,120.913582 116.527130,118.946877 116.510437,117.160873 
	C116.473106,113.168060 116.499069,109.174606 116.499687,104.702026 
	C116.500198,97.590034 116.499916,90.957443 116.500008,83.851303 
	C116.500008,82.430054 116.500008,81.482353 116.500008,80.060173 
	C116.500008,68.189400 116.500008,56.793106 116.500008,44.934052 
	C116.502937,40.560349 116.493454,36.649399 116.512207,32.301792 
	C116.528343,31.294010 116.565826,30.724703 116.722260,29.752098 
	C116.935669,28.820034 117.078377,28.298592 117.411133,27.429619 
	C119.593056,24.779623 121.557838,26.427227 123.236938,27.409594 
	C126.610565,29.383366 130.157486,31.039537 133.785309,33.283775 
	C137.082153,35.086739 139.689316,37.425842 143.448029,38.283024 
	C143.996689,38.414890 144.209152,38.492336 144.710083,38.743889 
	C145.961960,39.745174 146.738358,40.854519 148.480591,41.027443 
	C149.031418,41.094486 149.251022,41.140575 149.789276,41.300484 
	C150.306946,41.516361 150.505951,41.618420 151.207886,42.131119 
	C152.129929,42.967064 152.490051,43.458511 153.330444,43.811195 
	C153.804108,43.957901 153.992340,44.024872 154.454956,44.216835 
	C155.076920,44.535103 155.410767,44.749535 155.964691,45.161514 
	C156.493073,45.579208 156.770737,45.839931 157.226105,46.307724 
	C157.883469,46.795158 158.385559,46.994602 159.218964,47.166058 
	C159.711380,47.288662 159.909149,47.348591 160.400665,47.523651 
	C161.285126,47.905132 161.831070,48.252071 162.666290,48.773354 
	C171.813110,54.545460 180.161072,60.968922 190.023621,65.596100 
	C191.954895,66.664986 193.455780,67.780487 195.469971,68.712814 
	C197.407806,69.894951 198.402130,71.598190 200.255188,72.875305 
	C200.867310,73.011024 201.164566,72.998428 201.685608,73.006134 
	C202.859650,75.598007 200.693481,76.065605 199.192902,76.881508 
	C194.537430,79.412766 189.975143,82.100807 185.137848,85.038300 
	C175.589661,90.041550 166.804443,95.646500 157.456329,100.955353 
	C155.020569,102.655273 152.437820,103.430138 150.187302,105.362167 
	C149.858063,105.778778 149.730423,105.949051 149.364868,106.329567 
	C148.785172,106.778450 148.436005,107.005852 147.805420,107.352600 
	C147.347626,107.562851 147.164520,107.643448 146.726013,107.873642 
	C146.302872,108.122292 146.135147,108.221321 145.700867,108.429184 
	C145.255768,108.600288 145.077194,108.662560 144.630890,108.805511 
	C143.834396,109.031990 143.316986,109.206131 142.622955,109.656120 
	C142.251709,109.928017 142.103027,110.038551 141.717194,110.297760 
	C141.147720,110.630707 140.819595,110.822205 140.250214,111.185638 
	C139.840561,111.466507 139.675552,111.581299 139.267059,111.887802 
	C138.848633,112.199867 138.673676,112.320229 138.222534,112.612122 
	C134.521851,114.570061 131.030518,116.229607 127.390381,118.327309 
	C125.453636,119.115265 124.146011,120.434189 122.041534,120.837677 
	C120.860191,121.031059 120.056267,121.337158 119.002716,121.883942 
z"
  />
<path
    fill="#A1163B"
    opacity="1.000000"
    stroke="none"
    d="
M120.792389,120.331795 
	C122.504074,119.143028 123.990135,118.231522 125.791885,117.238922 
	C133.076904,115.331032 139.029526,111.234627 145.553436,108.400208 
	C157.901733,103.035316 169.917526,96.912468 182.408417,91.867020 
	C185.594620,90.580017 186.931335,88.702858 186.203125,85.004837 
	C194.315079,79.012222 203.055603,74.644821 211.633972,69.999687 
	C212.559830,69.498352 213.568893,69.647331 214.789780,70.396973 
	C214.359756,74.744225 212.624237,78.472717 210.927612,82.597595 
	C207.759811,86.572342 203.516144,88.135078 199.270096,89.589867 
	C195.819794,90.772026 193.593338,92.699463 193.035446,96.535088 
	C192.376144,101.067970 190.041718,104.919067 187.115479,108.867477 
	C186.361908,109.831345 185.676697,110.232780 184.460266,110.462334 
	C174.982300,112.526901 165.931183,114.642014 156.367813,116.259476 
	C155.169693,116.311569 154.380905,116.394348 153.230606,116.708267 
	C143.980896,119.302765 134.987869,121.119225 125.390717,121.811554 
	C123.948029,121.910919 122.890945,121.926926 121.438904,121.902885 
	C120.667183,121.527763 120.518143,121.106026 120.792389,120.331795 
z"
  />
<path
    fill="#01C499"
    opacity="1.000000"
    stroke="none"
    d="
M117.450348,29.015991 
	C117.872719,29.518791 117.902397,29.967590 117.866028,30.747875 
	C117.207565,32.656952 117.685181,34.321037 117.294533,36.326729 
	C117.079994,50.840050 113.983452,64.713326 113.835663,78.828781 
	C113.813622,80.933807 113.456116,83.147224 112.274780,85.435791 
	C112.175156,86.456902 109.931107,85.691597 111.374130,87.391342 
	C112.432907,89.685036 112.636993,91.905563 112.081688,93.893326 
	C110.766380,98.601555 111.969276,102.164307 116.206711,105.208290 
	C116.734856,114.339813 116.331306,123.070427 116.560509,131.798019 
	C116.600761,133.330963 116.704163,135.185715 114.457870,136.292725 
	C111.400787,133.488861 108.822159,130.579407 106.100929,127.368988 
	C102.853668,122.240318 104.552841,117.043282 105.101326,112.058037 
	C105.487976,108.543617 104.954712,105.851822 102.050858,103.783035 
	C98.837250,101.493561 97.590485,97.683136 94.874435,94.494858 
	C93.956329,93.192314 93.972885,92.081215 94.100372,90.564484 
	C97.846909,79.667953 101.339226,69.119797 104.578873,58.493820 
	C107.343193,49.426922 110.235092,40.431179 114.699684,32.018467 
	C115.324577,30.840988 115.685753,29.533159 117.450348,29.015991 
z"
  />
<path
    fill="#009575"
    opacity="1.000000"
    stroke="none"
    d="
M117.902832,28.677210 
	C115.964104,30.272972 115.703255,32.366364 115.092461,34.225872 
	C109.698669,50.646927 104.357231,67.085190 98.960793,83.505371 
	C98.289536,85.547844 97.387863,87.514595 96.359032,89.777924 
	C91.829010,90.392685 91.433784,86.954659 91.039032,84.217461 
	C90.117371,77.826736 90.153389,71.435135 93.544540,65.058502 
	C97.734795,55.965584 103.577034,48.418404 108.346619,40.228825 
	C110.969734,35.724831 113.998512,31.457104 117.140831,26.954300 
	C117.612389,27.311974 117.787506,27.798199 117.902832,28.677210 
z"
  />
<path
    fill="#966600"
    opacity="1.000000"
    stroke="none"
    d="
M178.693817,32.720501 
	C185.845642,44.477364 191.779144,56.446022 197.965866,68.647835 
	C197.477722,69.660103 196.802353,69.895370 195.643158,69.741005 
	C194.806702,69.531738 194.350815,69.361282 193.660248,68.877762 
	C188.965546,61.678665 182.025345,57.047123 176.870804,50.723652 
	C172.152069,44.934811 166.745605,39.712616 161.823181,33.604378 
	C161.375198,33.197235 161.200974,33.025253 160.807220,32.553326 
	C158.791763,29.128593 153.664948,27.794420 155.709473,22.408180 
	C161.420563,19.884193 170.818390,23.151602 175.622467,28.949903 
	C176.570297,30.093895 177.342773,31.380550 178.693817,32.720501 
z"
  />
<path
    fill="#7B112D"
    opacity="1.000000"
    stroke="none"
    d="
M125.368469,122.082794 
	C125.467621,120.654366 126.464355,120.223473 127.681839,119.980240 
	C135.814102,118.355507 143.939026,116.694160 152.471420,115.040955 
	C153.539688,115.082321 154.126236,114.903999 154.862213,114.240555 
	C164.514847,112.758636 173.586960,109.644684 183.527069,108.946991 
	C186.117783,111.471603 184.367874,113.240669 182.706161,114.913948 
	C177.984299,119.668640 172.300781,122.532646 165.278412,123.531174 
	C151.868027,123.232079 138.799927,122.751373 125.368469,122.082794 
z"
  />
<path
    fill="#00735A"
    opacity="1.000000"
    stroke="none"
    d="
M93.442116,64.773010 
	C93.010185,70.246124 92.756477,75.891563 93.030373,81.553848 
	C93.169212,84.423988 93.874153,87.145424 95.851074,89.785706 
	C96.167038,91.073357 96.208961,92.107292 96.292465,93.528320 
	C96.931358,99.603539 95.392319,104.629318 91.269485,109.087708 
	C80.502823,98.949203 78.942581,88.172813 86.185097,75.625038 
	C88.308167,71.946785 90.803291,68.483269 93.442116,64.773010 
z"
  />
<path
    fill="#734E00"
    opacity="1.000000"
    stroke="none"
    d="
M178.933838,32.657013 
	C173.837128,30.422512 169.811584,25.977566 164.052185,24.351656 
	C161.645889,23.672346 159.343903,22.820786 156.385590,23.020824 
	C155.023056,23.687422 154.025436,23.718657 152.657715,23.109512 
	C149.955597,20.027267 147.215393,17.477320 144.882706,14.558189 
	C143.729843,13.115501 142.553391,11.752845 143.774094,9.461740 
	C154.877960,5.413371 165.888107,9.257245 171.909180,19.175444 
	C174.476868,23.405075 176.579605,27.916971 178.933838,32.657013 
z"
  />
<path
    fill="#7B112D"
    opacity="1.000000"
    stroke="none"
    d="
M186.153931,108.265160 
	C188.278427,103.186981 190.676300,98.487801 191.122406,93.069893 
	C191.323380,90.628906 193.204849,89.224762 195.163651,88.431770 
	C200.049911,86.453667 205.064072,84.791458 210.392914,82.962677 
	C208.756256,90.237488 205.879074,97.240349 202.974609,104.614517 
	C197.628265,107.441628 192.470413,110.042786 186.153931,108.265160 
z"
  />
<path
    fill="#5E0D23"
    opacity="1.000000"
    stroke="none"
    d="
M185.654114,108.031677 
	C191.306458,107.177803 196.462036,105.076904 202.394318,104.946854 
	C202.586258,107.047058 201.697479,108.891312 200.246902,110.808655 
	C199.960403,110.991783 199.633331,110.690704 199.809784,110.829056 
	C197.160309,118.820206 191.085327,122.877388 183.272690,123.846146 
	C177.558334,124.554710 171.677048,123.917175 165.403152,123.796204 
	C169.052170,119.898781 174.937485,118.985138 179.018051,115.049835 
	C180.775772,113.354691 182.963120,112.098999 183.889130,109.285995 
	C184.439804,108.682602 184.924347,108.419487 185.654114,108.031677 
z"
  />
<path
    fill="#966701"
    opacity="1.000000"
    stroke="none"
    d="
M143.598267,9.151894 
	C146.052078,13.861047 150.726257,16.569925 153.022491,21.445652 
	C151.759521,25.216515 148.412827,24.862410 145.662888,25.645796 
	C143.594650,26.234978 141.515701,26.782518 138.971375,27.050524 
	C136.985092,26.992613 135.822922,25.621645 133.809082,25.537867 
	C129.248047,23.977190 126.236588,20.770720 122.820908,18.170681 
	C121.412430,17.098534 120.777626,15.559671 121.771324,13.437278 
	C128.910980,10.958082 136.072235,10.207669 143.598267,9.151894 
z"
  />
<path
    fill="#009675"
    opacity="1.000000"
    stroke="none"
    d="
M91.024521,109.493126 
	C91.925011,104.084259 93.477890,99.136147 96.052277,94.174377 
	C100.151855,97.042297 102.233490,101.805916 106.768097,104.385918 
	C109.001694,105.656746 107.947502,108.634819 107.713318,110.897247 
	C107.185280,115.998642 106.572250,121.091232 105.976059,126.627724 
	C101.030426,121.307800 96.102516,115.547562 91.024521,109.493126 
z"
  />
<path
    fill="#C28501"
    opacity="1.000000"
    stroke="none"
    d="
M121.595657,13.116409 
	C124.312843,18.405640 130.123978,19.804533 133.882751,23.973040 
	C135.201630,25.083309 136.000427,26.131451 136.436462,27.892868 
	C137.112320,30.064379 136.661423,31.559090 134.996231,33.062492 
	C132.154785,34.277374 130.728378,32.121998 128.926132,31.175848 
	C121.598534,27.328995 114.689125,22.752483 107.471680,18.708967 
	C106.583160,18.211184 105.769775,17.664326 105.742340,16.181725 
	C110.882820,14.443839 116.007225,13.660687 121.595657,13.116409 
z"
  />
<path
    fill="#AA5E72"
    opacity="1.000000"
    stroke="none"
    d="
M215.301117,70.436455 
	C205.659180,74.776978 196.878540,80.104767 187.191742,85.105011 
	C185.680756,85.449440 184.836777,85.324402 184.069168,84.275604 
	C189.761215,80.460854 195.580475,76.950752 201.654236,73.226089 
	C206.692261,70.319649 211.475769,67.627769 216.321854,64.900673 
	C217.632965,67.194786 215.812943,68.559395 215.301117,70.436455 
z"
  />
<path
    fill="#50C2A9"
    opacity="1.000000"
    stroke="none"
    d="
M114.043655,136.694855 
	C115.851807,129.100128 114.582405,121.652138 115.014114,114.284294 
	C115.177765,111.491295 115.080574,108.683022 115.079514,105.409485 
	C114.849228,104.493546 114.916168,104.086632 115.512901,103.537659 
	C116.255142,103.270187 116.699791,103.292221 117.394043,103.654099 
	C117.770882,109.618095 117.892418,115.357758 118.100464,121.561577 
	C118.186966,128.027222 118.186966,134.028702 118.186966,140.286652 
	C115.673248,139.794952 115.055496,138.208374 114.043655,136.694855 
z"
  />
<path
    fill="#BA974E"
    opacity="1.000000"
    stroke="none"
    d="
M105.507584,15.779275 
	C114.994293,21.441936 124.124344,27.062578 133.564819,32.808739 
	C134.038651,33.074230 134.202057,33.214211 134.447266,33.666412 
	C134.487198,34.189690 134.445328,34.400749 134.183350,34.847858 
	C128.719742,32.255688 123.476265,29.427471 117.835022,26.712500 
	C117.437263,26.825747 117.489822,26.894283 117.531410,26.882380 
	C114.901558,23.268221 110.453499,22.320820 107.044586,19.821899 
	C105.490982,18.683023 103.360023,18.328766 102.201561,16.220242 
	C103.285454,16.042744 104.218193,15.889999 105.507584,15.779275 
z"
  />
<path
    fill="#C48600"
    opacity="1.000000"
    stroke="none"
    d="
M194.844971,69.176285 
	C195.903107,68.924957 196.594833,68.972763 197.633301,69.015091 
	C198.709763,70.163452 199.439468,71.317299 200.369934,72.754837 
	C198.492615,73.122154 197.018341,71.744095 195.135040,70.589226 
	C194.783768,70.027313 194.631180,69.751366 194.844971,69.176285 
z"
  />
<path
    fill="#7B112D"
    opacity="1.000000"
    stroke="none"
    d="
M120.714111,120.147888 
	C121.020172,120.456444 121.022316,120.858360 121.034210,121.561554 
	C120.533028,121.936165 120.022110,122.009506 119.121590,122.070694 
	C119.291389,121.452774 119.850792,120.847015 120.714111,120.147888 
z"
  />
<path
    fill="#100A0C"
    opacity="1.000000"
    stroke="none"
    d="
M317.072327,108.294128 
	C313.585602,107.557526 312.615723,105.532974 313.483856,102.669792 
	C314.168335,100.412445 315.740051,98.978149 318.257141,99.026993 
	C320.373505,99.068054 321.768799,100.184784 321.977417,102.299240 
	C322.301666,105.585144 320.935181,107.767426 317.072327,108.294128 
z"
  />
<path
    fill="#180A0F"
    opacity="1.000000"
    stroke="none"
    d="
M284.470612,89.051346 
	C287.599365,90.318542 288.723602,92.253548 287.167633,95.004646 
	C285.509277,97.936745 282.536469,97.831413 279.744843,97.576973 
	C277.331757,97.357025 278.347137,95.542648 278.481354,94.165977 
	C278.812866,90.766197 279.612732,87.916206 284.470612,89.051346 
z"
  />
<path
    fill="#C88703"
    opacity="1.000000"
    stroke="none"
    d="
M136.332870,45.693581 
	C148.526321,52.572159 160.320984,59.305103 172.124893,66.021797 
	C175.489227,67.936180 179.153717,69.817429 178.734390,74.428993 
	C178.317780,79.010529 174.409042,80.779755 170.909225,82.702950 
	C169.912186,83.250839 168.525421,82.662971 167.385712,83.940109 
	C166.780487,84.267899 166.526932,84.465279 166.154205,84.891068 
	C166.005585,85.081612 166.012238,85.016098 166.043549,85.026291 
	C165.590469,85.414986 164.987396,85.487747 164.227448,85.893723 
	C164.025925,86.112000 164.037201,86.045166 164.065002,86.064560 
	C163.570007,86.364937 163.018341,86.567184 161.994720,86.682297 
	C158.544739,85.483032 158.811554,82.958694 159.158966,80.513565 
	C159.432220,78.590446 159.704407,76.650650 160.358185,74.383522 
	C160.428864,73.719337 160.452972,73.458946 160.511627,72.818542 
	C164.028885,66.751518 163.776947,65.666779 158.167206,63.694252 
	C149.483856,58.683987 141.731644,52.692371 132.311798,49.754211 
	C131.504364,49.502361 130.969559,48.829647 130.507004,47.671364 
	C131.339493,43.769775 133.972855,45.718838 136.332870,45.693581 
z"
  />
<path
    fill="#FAAD05"
    opacity="1.000000"
    stroke="none"
    d="
M134.212769,33.929993 
	C134.057693,33.603062 133.984039,33.264618 133.929657,33.099434 
	C134.294083,31.583321 134.712921,30.232391 135.179474,28.529892 
	C135.471085,27.057949 136.254120,26.538649 137.668762,26.371532 
	C145.149689,27.116573 149.290390,32.564339 154.568970,36.819031 
	C155.425217,37.596012 155.979828,38.215595 157.081650,38.643028 
	C168.419891,46.323490 179.233536,54.165279 189.209473,63.104809 
	C189.963577,63.780571 190.706863,64.406738 190.760651,65.862198 
	C190.609558,66.448166 190.498474,66.667801 190.067078,67.071060 
	C180.348434,61.910282 170.950073,56.565872 161.238037,51.058514 
	C160.480042,50.266247 160.064758,49.607559 159.018784,49.260868 
	C158.731430,49.225487 158.834396,49.172459 158.858856,49.224953 
	C158.334961,48.165092 157.213913,48.141617 155.908722,47.823227 
	C155.410690,47.819321 155.260391,47.765930 155.120544,47.485886 
	C154.882309,47.007812 154.637497,46.677711 154.083237,46.234428 
	C153.806442,46.097042 153.945862,46.158081 153.914307,46.227325 
	C153.162460,44.926716 151.588516,45.094284 150.198975,44.240967 
	C149.910950,44.070877 149.972885,44.043488 149.979828,44.076622 
	C149.778748,43.807106 149.538589,43.532940 148.988403,43.259972 
	C148.715759,43.227966 148.829498,43.319813 148.781967,43.375347 
	C147.855331,41.607063 145.778336,41.721504 144.061234,40.634438 
	C143.743332,40.529659 143.631714,40.663776 143.560715,40.613091 
	C141.115036,37.497169 136.973267,36.988316 134.212769,33.929993 
z"
  />
<path
    fill="#CF204F"
    opacity="1.000000"
    stroke="none"
    d="
M187.148376,85.171936 
	C190.747025,90.073479 190.698334,90.888786 185.890106,92.958542 
	C167.283463,100.967873 148.635406,108.881126 129.983841,116.785515 
	C128.954880,117.221581 127.755196,117.254822 126.371277,117.316696 
	C129.695282,115.204559 133.282974,113.251297 137.134430,111.111351 
	C137.844406,110.882668 138.235397,110.710052 138.799744,110.182175 
	C139.020523,109.939079 138.999069,110.004265 138.967133,109.991669 
	C139.409134,109.583176 140.011719,109.512085 140.783173,109.124130 
	C140.995529,108.917091 140.979538,108.979591 140.953568,108.960464 
	C141.633591,108.477470 142.413361,108.177414 143.505890,107.810349 
	C143.874481,107.542137 143.946671,107.377174 144.227112,107.040207 
	C144.873871,106.851746 145.256729,106.693871 145.805939,106.175949 
	C146.020569,105.938599 146.001419,106.004921 145.968719,105.993866 
	C146.408569,105.583099 147.012527,105.512268 147.782196,105.119690 
	C147.992752,104.910217 147.984589,104.975136 147.954758,104.961716 
	C150.431168,103.616600 153.177048,102.741943 155.750427,100.775848 
	C166.252457,95.640175 175.550552,88.964020 186.530731,84.858215 
	C186.891464,84.898659 187.055328,85.088104 187.148376,85.171936 
z"
  />
<path
    fill="#CA4B2D"
    opacity="1.000000"
    stroke="none"
    d="
M136.518417,45.604702 
	C134.891815,46.255249 132.694275,45.341835 131.153717,48.077496 
	C130.726501,55.937584 129.182632,62.921867 129.374115,70.120522 
	C129.528595,75.928169 130.173233,81.687302 130.355820,87.480888 
	C130.423996,89.643478 131.330566,91.309151 133.598999,91.955719 
	C135.060410,92.372261 136.383377,93.036369 137.447479,94.707954 
	C137.675293,95.320763 137.728638,95.573494 137.753632,96.202377 
	C137.038712,98.645866 135.246735,98.431824 133.633957,98.528336 
	C131.423218,98.660629 129.958084,99.677231 129.134125,102.053452 
	C125.846497,100.827965 125.860123,98.062798 125.837303,95.404823 
	C125.716034,81.277122 125.575386,67.148911 125.590492,53.021027 
	C125.598122,45.885983 129.182053,43.434418 136.518417,45.604702 
z"
  />
<path
    fill="#D9758F"
    opacity="1.000000"
    stroke="none"
    d="
M186.644608,84.701492 
	C176.829208,90.337334 166.766953,95.776009 156.358398,101.350693 
	C155.882904,101.252113 155.753693,101.017509 155.821228,100.432617 
	C165.104736,94.778648 174.191483,89.474968 183.610077,84.071121 
	C184.760544,84.148743 185.579147,84.326530 186.644608,84.701492 
z"
  />
<path
    fill="#F8C96F"
    opacity="1.000000"
    stroke="none"
    d="
M137.032104,97.116882 
	C136.904160,96.713371 136.911102,96.598251 136.938553,96.547546 
	C137.024017,96.005356 136.988052,95.321037 137.349197,95.100975 
	C144.041428,91.023209 150.893341,87.336403 159.520996,87.477821 
	C155.619614,92.409721 149.696426,94.433784 144.304901,97.917358 
	C142.732132,98.754478 141.323212,98.825615 139.530975,99.029831 
	C138.234985,98.810745 137.604431,98.286835 137.032104,97.116882 
z"
  />
<path
    fill="#73FFE0"
    opacity="1.000000"
    stroke="none"
    d="
M117.727638,103.424194 
	C117.248581,103.884918 116.847801,103.891418 116.144951,103.918259 
	C114.523575,103.039009 113.897560,101.754120 113.843307,100.193962 
	C113.656311,94.816086 113.036476,89.421288 114.702881,83.699310 
	C115.488075,82.822014 116.078835,82.576889 117.225418,82.748672 
	C117.724953,89.611595 117.765442,96.290787 117.727638,103.424194 
z"
  />
<path
    fill="#D6B277"
    opacity="1.000000"
    stroke="none"
    d="
M138.467041,97.763763 
	C140.245804,97.965103 141.675201,97.971733 143.532822,97.986580 
	C139.611710,100.158478 136.260361,104.767052 130.241547,103.224106 
	C129.921539,96.982697 135.089325,98.890808 138.467041,97.763763 
z"
  />
<path
    fill="#D7AA50"
    opacity="1.000000"
    stroke="none"
    d="
M138.635284,97.732132 
	C135.784866,99.035866 132.796951,100.196281 130.167816,102.681335 
	C129.628784,102.997803 129.330856,102.891632 128.962219,102.430328 
	C128.546005,101.112442 128.153015,100.022141 127.976524,98.897858 
	C127.558395,96.234398 128.435791,95.240234 131.253906,96.183914 
	C132.757690,96.687462 134.471924,96.562531 136.497665,96.717316 
	C137.420837,96.977516 137.937500,97.241653 138.635284,97.732132 
z"
  />
<path
    fill="#50C2A9"
    opacity="1.000000"
    stroke="none"
    d="
M117.397003,43.948105 
	C117.900070,55.740349 117.945396,67.455452 117.889572,79.636047 
	C115.838165,79.818291 115.542709,78.279793 115.602280,76.806885 
	C115.787964,72.216324 114.778481,67.694473 115.073196,62.657978 
	C115.608742,56.664299 115.844597,51.116249 116.363617,45.135597 
	C116.653885,44.420177 116.796570,44.145573 117.397003,43.948105 
z"
  />
<path
    fill="#4AFFD7"
    opacity="1.000000"
    stroke="none"
    d="
M116.451225,61.977066 
	C117.113625,67.709358 117.275337,73.524406 117.612732,79.720490 
	C117.815536,80.815430 117.842667,81.529320 117.777130,82.587814 
	C117.337692,82.965263 116.990921,82.998123 116.383362,83.047775 
	C115.513443,82.776062 114.752113,82.404335 114.662201,81.801849 
	C113.667305,75.136024 113.383682,68.499649 116.451225,61.977066 
z"
  />
<path
    fill="#EABD5C"
    opacity="1.000000"
    stroke="none"
    d="
M134.017975,33.972244 
	C137.394653,35.404346 141.035126,36.746559 143.499664,40.207375 
	C140.454773,38.912350 137.419830,37.262295 134.174057,35.348076 
	C133.968231,34.836411 133.973236,34.588917 134.017975,33.972244 
z"
  />
<path
    fill="#D06783"
    opacity="1.000000"
    stroke="none"
    d="
M155.680206,100.147491 
	C156.019669,100.315269 156.021332,100.548195 156.017548,101.133919 
	C153.788940,103.142418 151.467636,104.596107 148.294250,105.002083 
	C149.996704,102.742081 152.931046,101.886917 155.680206,100.147491 
z"
  />
<path
    fill="#25C6A3"
    opacity="1.000000"
    stroke="none"
    d="
M117.921310,43.564400 
	C117.854744,44.025242 117.527702,44.014225 117.364098,44.012291 
	C115.728043,41.788059 116.803658,39.330933 116.748459,36.586273 
	C117.119766,34.697079 117.296646,33.217556 117.636749,31.408697 
	C117.862610,35.087429 117.925247,39.095497 117.921310,43.564400 
z"
  />
<path
    fill="#EABD5C"
    opacity="1.000000"
    stroke="none"
    d="
M143.903412,40.809731 
	C145.970673,39.917915 147.370285,41.124622 148.660461,43.082542 
	C146.891510,43.221054 145.578354,41.954205 143.903412,40.809731 
z"
  />
<path
    fill="#FAAD05"
    opacity="1.000000"
    stroke="none"
    d="
M194.998016,68.741943 
	C195.155014,69.112808 195.098679,69.348465 194.989349,69.943680 
	C193.344193,69.463272 191.752029,68.623291 189.953339,67.518997 
	C189.746796,67.254692 189.868408,67.132904 189.929108,67.071922 
	C191.288986,65.867249 192.396790,66.506607 193.787140,67.630806 
	C194.325134,68.119713 194.554901,68.363220 194.998016,68.741943 
z"
  />
<path
    fill="#EABD5C"
    opacity="1.000000"
    stroke="none"
    d="
M150.039673,44.384396 
	C151.496582,43.774857 152.686829,44.411148 153.753113,45.970970 
	C152.352600,46.442204 151.396332,45.254440 150.039673,44.384396 
z"
  />
<path
    fill="#BE5672"
    opacity="1.000000"
    stroke="none"
    d="
M143.521179,107.698166 
	C143.298752,108.602768 142.527069,109.024368 141.216980,108.973541 
	C141.306183,107.799545 142.285797,107.767807 143.521179,107.698166 
z"
  />
<path
    fill="#E9B84F"
    opacity="1.000000"
    stroke="none"
    d="
M155.907135,47.973110 
	C156.990173,46.874210 157.902664,47.590797 158.791702,48.985615 
	C157.994446,48.910439 157.105576,48.543430 155.907135,47.973110 
z"
  />
<path
    fill="#E9B84F"
    opacity="1.000000"
    stroke="none"
    d="
M158.835724,49.505310 
	C159.660736,49.096798 160.369064,49.382561 160.833160,50.596504 
	C160.262909,50.525421 159.601456,50.155281 158.835724,49.505310 
z"
  />
<path
    fill="#CA9E55"
    opacity="1.000000"
    stroke="none"
    d="
M161.426605,86.133545 
	C162.126160,85.912971 162.692902,85.913307 163.676208,85.998795 
	C163.982117,87.062996 163.029953,87.095001 162.166412,87.619049 
	C161.760269,87.574867 161.636612,87.456276 161.405151,87.103836 
	C161.296158,86.698143 161.294968,86.526299 161.426605,86.133545 
z"
  />
<path
    fill="#EFC06B"
    opacity="1.000000"
    stroke="none"
    d="
M161.109970,86.470169 
	C161.483185,86.710350 161.560791,86.908012 161.761169,87.399567 
	C161.486496,87.791336 161.089035,87.889198 160.383011,88.027420 
	C160.074432,88.067787 159.828140,87.838463 159.715790,87.713219 
	C159.774368,86.958336 160.183975,86.577789 161.109970,86.470169 
z"
  />
<path
    fill="#D06783"
    opacity="1.000000"
    stroke="none"
    d="
M147.684082,104.914917 
	C147.521332,105.267113 147.049911,105.624008 146.257263,105.981857 
	C146.415833,105.628418 146.895630,105.274017 147.684082,104.914917 
z"
  />
<path
    fill="#CA9E55"
    opacity="1.000000"
    stroke="none"
    d="
M164.346466,86.130890 
	C164.495331,85.750549 164.964752,85.389114 165.754517,85.032082 
	C165.605576,85.407593 165.136292,85.778694 164.346466,86.130890 
z"
  />
<path
    fill="#BE5672"
    opacity="1.000000"
    stroke="none"
    d="
M140.683929,108.910156 
	C140.513046,109.253662 140.030563,109.590225 139.241638,109.952942 
	C139.414261,109.620461 139.893295,109.261841 140.683929,108.910156 
z"
  />
<path
    fill="#D06783"
    opacity="1.000000"
    stroke="none"
    d="
M145.696899,105.981247 
	C145.703323,106.203522 145.386063,106.468452 144.752075,106.800781 
	C144.747986,106.586761 145.060623,106.305328 145.696899,105.981247 
z"
  />
<path
    fill="#BE5672"
    opacity="1.000000"
    stroke="none"
    d="
M138.685394,109.982353 
	C138.686981,110.202522 138.353439,110.465965 137.709045,110.827042 
	C137.715546,110.624985 138.032898,110.325302 138.685394,109.982353 
z"
  />
<path
    fill="#CA9E55"
    opacity="1.000000"
    stroke="none"
    d="
M166.273605,85.046646 
	C166.197479,84.811806 166.389389,84.542000 166.822388,84.190277 
	C166.889542,84.409470 166.715591,84.710571 166.273605,85.046646 
z"
  />
<path
    fill="#EABD5C"
    opacity="1.000000"
    stroke="none"
    d="
M148.763794,43.536541 
	C149.057266,43.354401 149.398758,43.480835 149.863525,43.858517 
	C149.595123,44.021545 149.203476,43.933331 148.763794,43.536541 
z"
  />
<path
    fill="#EABD5C"
    opacity="1.000000"
    stroke="none"
    d="
M153.832977,46.438225 
	C154.154175,46.322174 154.501907,46.547306 154.972046,47.067299 
	C154.682800,47.167908 154.271164,46.973656 153.832977,46.438225 
z"
  />
<path
    fill="#9E485E"
    opacity="1.000000"
    stroke="none"
    d="
M154.801697,114.090042 
	C154.945496,115.211769 155.434219,117.246040 152.991180,115.296463 
	C153.415665,114.738045 153.954849,114.438889 154.801697,114.090042 
z"
  />
<path
    fill="#03FDC6"
    opacity="1.000000"
    stroke="none"
    d="
M116.747009,36.503586 
	C116.991524,38.497158 117.040154,40.817711 117.144638,43.574310 
	C117.120895,49.667263 117.041298,55.324165 116.956802,61.437695 
	C115.241386,68.572083 116.304092,75.378479 116.068115,82.593346 
	C116.014290,89.714020 115.906006,96.363464 115.820297,103.475754 
	C115.639565,104.137428 115.456848,104.353645 115.175735,104.762260 
	C108.923027,104.960777 108.601868,104.652985 109.055992,98.486687 
	C109.322830,94.863327 109.728729,91.250206 110.070328,86.907448 
	C112.391998,76.793427 112.604477,67.115242 113.964699,57.593521 
	C114.950851,50.690254 115.697609,43.752789 116.747009,36.503586 
z"
  />
<path
    fill="#43D4B4"
    opacity="1.000000"
    stroke="none"
    d="
M109.937386,85.836517 
	C110.068573,86.182411 110.050545,86.443771 110.045036,86.571663 
	C108.601807,87.613281 107.125000,88.542580 105.760033,86.663475 
	C105.228432,85.931625 105.300003,85.005524 106.103348,84.492775 
	C107.632957,83.516464 108.900024,83.937737 109.937386,85.836517 
z"
  />
<path
    fill="#C48600"
    opacity="1.000000"
    stroke="none"
    d="
M194.019623,67.543564 
	C192.959869,67.607803 191.824387,67.339401 190.339355,67.040970 
	C189.818039,65.501144 188.633163,64.769493 187.580048,63.985416 
	C177.304077,56.334759 167.012375,48.705235 156.395844,40.966011 
	C155.123718,40.542908 154.081772,40.396103 153.367294,39.145531 
	C149.014984,34.206970 143.452606,31.238785 138.418579,27.074917 
	C138.017593,26.698902 137.879501,26.528282 137.994812,26.147442 
	C142.536682,23.223761 147.482147,22.817034 152.708527,21.851582 
	C153.883698,22.101639 154.643143,22.437174 155.683716,22.906925 
	C157.165726,26.355314 160.558014,28.087538 161.981400,31.624235 
	C161.839920,32.188152 161.617020,32.396019 161.374466,32.582664 
	C161.072174,31.988474 161.160751,32.752617 161.863358,32.146797 
	C165.844650,32.909496 167.115494,36.598324 169.458084,39.054302 
	C176.798035,46.749531 183.854980,54.716526 190.942963,62.648472 
	C192.142700,63.991077 192.953430,65.681297 194.019623,67.543564 
z"
  />
<path
    fill="#8D5262"
    opacity="1.000000"
    stroke="none"
    d="
M199.992798,110.986687 
	C199.228470,111.274429 198.492126,111.661682 197.708282,111.871078 
	C196.257034,112.258774 195.061813,111.791618 194.468643,110.381874 
	C193.936035,109.116058 194.550323,108.118858 195.657104,107.505058 
	C197.056274,106.729103 198.209961,107.251099 199.027298,108.492172 
	C199.378159,109.024902 199.511887,109.700623 199.852341,110.651581 
	C199.960403,110.991783 199.999344,111.005959 199.992798,110.986687 
z"
  />
<path
    fill="#CEA54D"
    opacity="1.000000"
    stroke="none"
    d="
M138.055176,25.646345 
	C138.248215,25.937222 138.175797,26.401699 138.165741,26.635609 
	C137.378464,27.238926 136.601227,27.608332 135.525589,28.078030 
	C134.247910,27.311966 133.867966,26.226273 134.077576,24.584908 
	C135.540100,24.016508 136.913742,23.976736 138.055176,25.646345 
z"
  />
<path
    fill="#49B49D"
    opacity="1.000000"
    stroke="none"
    d="
M98.816025,110.777969 
	C96.384445,110.431984 95.593246,109.247246 96.711090,107.366730 
	C97.360687,106.273933 98.652321,105.966454 99.677338,106.855621 
	C101.320190,108.280731 101.007187,109.652794 98.816025,110.777969 
z"
  />
<path
    fill="#FFD16E"
    opacity="1.000000"
    stroke="none"
    d="
M162.318222,71.726349 
	C162.092682,72.077515 161.989182,72.503731 161.939682,72.717377 
	C157.474854,78.330536 151.944733,82.101578 144.933960,84.174644 
	C144.250259,83.936028 143.952560,83.642075 143.670486,83.651863 
	C134.159531,83.982246 130.671982,77.738358 128.568634,69.490448 
	C128.484207,64.163315 128.523056,59.256287 128.493027,54.349518 
	C128.479858,52.195496 128.470795,50.067085 130.687973,48.279022 
	C131.072220,48.062958 131.085373,48.008205 131.058105,48.005020 
	C135.989410,47.375572 139.952332,49.745979 143.878113,52.252121 
	C148.730148,55.349556 154.198776,57.481998 158.677948,61.774368 
	C161.800446,64.479027 164.034256,67.209167 162.318222,71.726349 
z"
  />
<path
    fill="#FFAF04"
    opacity="1.000000"
    stroke="none"
    d="
M144.507080,82.769440 
	C150.527267,79.913513 155.240753,75.441917 161.550903,73.015396 
	C162.674438,77.080574 161.106567,81.118103 161.431686,85.576172 
	C161.559433,85.912636 161.507843,86.217415 161.456711,86.365051 
	C160.949112,86.767021 160.492661,87.021355 159.819824,87.431831 
	C152.253555,90.344902 145.342834,94.200012 137.354187,96.413605 
	C130.295059,93.947868 127.152611,89.581902 127.668846,81.985695 
	C128.299469,72.706581 127.770607,63.351669 127.862892,54.030727 
	C127.884560,51.841042 127.233383,49.176380 130.674042,48.100533 
	C127.803528,52.557373 129.435455,57.731186 129.088593,62.623409 
	C128.935730,64.779060 129.046402,66.953407 129.098587,69.587494 
	C131.672897,74.683296 130.448944,80.128883 132.642426,85.059525 
	C133.229996,85.430595 133.595230,85.582855 134.282318,85.724159 
	C137.968079,85.369637 140.454559,82.110161 144.507080,82.769440 
z"
  />
<path
    fill="#DDB868"
    opacity="1.000000"
    stroke="none"
    d="
M162.416168,71.937500 
	C161.095093,68.960754 160.097519,65.843994 159.013687,62.361275 
	C165.541016,64.285873 166.601974,67.013870 162.416168,71.937500 
z"
  />
<path
    fill="#FDBF39"
    opacity="1.000000"
    stroke="none"
    d="
M153.181366,39.206047 
	C154.050781,39.378876 154.892639,39.869926 155.900513,40.611652 
	C154.524536,41.659485 153.231232,41.915279 153.181366,39.206047 
z"
  />
<path
    fill="#D1A23A"
    opacity="1.000000"
    stroke="none"
    d="
M162.021637,31.977041 
	C161.794327,32.691525 161.636185,33.547138 160.704147,33.695557 
	C160.176712,33.779552 159.685394,33.293201 159.966537,32.869831 
	C160.248703,32.444927 160.939911,32.291656 161.748535,31.990318 
	C162.045227,31.961302 161.999283,31.998390 162.021637,31.977041 
z"
  />
<path
    fill="#FFDB8D"
    opacity="1.000000"
    stroke="none"
    d="
M144.622726,82.503616 
	C141.451019,84.738945 138.048553,86.719093 134.300934,88.755447 
	C133.528244,88.889114 133.097229,88.935295 132.337875,88.944336 
	C129.343567,88.214516 129.111267,86.042221 129.086487,83.846016 
	C129.038101,79.558060 129.084488,75.269043 129.125687,70.518097 
	C129.452118,70.207359 129.924728,70.291374 130.010635,70.520439 
	C132.528366,77.233376 137.305908,81.149940 144.622726,82.503616 
z"
  />
<path
    fill="#FFCD63"
    opacity="1.000000"
    stroke="none"
    d="
M132.185516,89.085121 
	C132.540955,88.808342 133.069366,88.682350 133.776794,88.684013 
	C133.537613,89.383194 133.009842,89.542107 132.185516,89.085121 
z"
  />
</svg>
