<svg
  version="1.1"
  id="Layer_1"
  xmlns="http://www.w3.org/2000/svg"
  xmlns:xlink="http://www.w3.org/1999/xlink"
  x="0px"
  y="0px"
  viewBox="0 0 500 149"
  enable-background="new 0 0 500 149"
  xml:space="preserve"
  width="296" height="90"
>
<path
    fill="#010000"
    opacity="1.000000"
    stroke="none"
    d="
	M333.000000,150.000000 
	C223.333374,150.000000 114.166725,149.979385 5.000218,150.095352 
	C1.576475,150.098984 0.891682,149.425568 0.902205,145.999817 
	C1.047088,98.833618 1.035223,51.666733 0.916716,4.500380 
	C0.909222,1.517816 1.517591,0.917341 4.499872,0.918997 
	C168.833099,1.010267 333.166382,1.010248 497.499634,0.919112 
	C500.480438,0.917459 501.090912,1.515850 501.083435,4.499857 
	C500.964874,51.832878 500.964935,99.166367 501.083221,146.499390 
	C501.090668,149.481323 500.484100,150.089188 497.500214,150.082993 
	C442.833649,149.969467 388.166809,150.000000 333.000000,150.000000 
	z"
  />
<path
    fill="#060202"
    opacity="1.000000"
    stroke="none"
    d="
	M200.255524,73.875671 
	C200.897247,74.012764 201.223862,74.001129 201.796112,74.008896 
	C202.760086,76.528664 200.732925,77.062096 199.192856,77.891212 
	C194.553482,80.388863 190.026169,83.077858 185.211044,85.986099 
	C176.132797,91.014778 167.310837,95.772484 158.546173,101.954514 
	C157.876053,102.604965 157.681168,102.734161 157.171967,103.011383 
	C154.434311,103.559418 152.302704,104.623604 150.099747,106.256546 
	C149.753738,106.654091 149.629654,106.825630 149.287445,107.227188 
	C148.746613,107.721504 148.410828,107.967834 147.789276,108.332001 
	C147.337112,108.554756 147.154861,108.637871 146.716766,108.871597 
	C146.291519,109.119949 146.122116,109.217682 145.681320,109.414932 
	C145.227280,109.565269 145.044617,109.616089 144.590118,109.732933 
	C143.785141,109.932877 143.271973,110.115257 142.593277,110.591843 
	C142.230698,110.877113 142.084793,110.992104 141.703766,111.260056 
	C141.132935,111.591827 140.802948,111.780632 140.235199,112.146957 
	C139.828857,112.432716 139.664917,112.549110 139.259506,112.860001 
	C138.844177,113.176712 138.670319,113.298912 138.220154,113.592834 
	C134.509338,115.533394 131.021591,117.200813 127.380783,119.299728 
	C125.443298,120.086967 124.155182,121.438095 122.045914,121.836212 
	C120.865402,122.030396 120.061066,122.333847 119.009216,122.882721 
	C118.739464,123.058441 118.460114,123.047806 118.320801,123.036438 
	C116.158936,121.906517 116.531715,119.943611 116.513351,118.155838 
	C116.472321,114.163239 116.501579,110.170013 116.500000,105.697807 
	C116.500023,98.588943 116.500023,91.959312 116.500008,84.856400 
	C116.500008,83.435959 116.500008,82.488808 116.500008,81.067444 
	C116.500015,69.835434 116.500023,59.077618 116.500008,47.855743 
	C116.572144,42.856331 116.341820,38.317699 116.761047,33.361618 
	C117.089996,32.407986 117.276138,31.867605 117.461365,30.902889 
	C117.496117,29.949265 117.504852,29.409489 117.587662,28.485476 
	C119.670128,25.824066 121.631439,27.467987 123.293854,28.451450 
	C126.644318,30.433546 130.189636,32.058876 133.788635,34.316776 
	C137.069412,36.136021 139.697037,38.415771 143.401306,39.383068 
	C143.943771,39.527367 144.157211,39.596233 144.656906,39.837624 
	C145.857742,40.914547 146.715164,41.902187 148.401764,42.188560 
	C148.946030,42.265759 149.162735,42.313351 149.693604,42.474869 
	C150.203857,42.691029 150.399933,42.793255 151.103043,43.296432 
	C152.023682,44.132324 152.358246,44.650032 153.194611,45.023411 
	C153.668930,45.166214 153.859207,45.225449 154.326233,45.401169 
	C154.954193,45.702305 155.291229,45.909702 155.845795,46.317883 
	C156.365936,46.743275 156.640625,47.006733 157.102234,47.473190 
	C157.760300,47.995083 158.276016,48.184677 159.122864,48.350777 
	C159.611771,48.484760 159.807068,48.549854 160.290955,48.735870 
	C161.158783,49.127838 161.704910,49.461712 162.573334,49.910568 
	C171.850693,55.474686 180.159744,61.974247 190.010620,66.618866 
	C191.919098,67.723801 193.430237,68.818962 195.459091,69.721817 
	C197.407959,70.891357 198.401642,72.598358 200.255524,73.875671 
z"
  />
<path
    fill="#F6A800"
    opacity="1.000000"
    stroke="none"
    d="
M246.408600,57.606228 
	C245.432739,60.493671 244.640076,63.033695 243.794647,65.556030 
	C241.419800,72.641403 241.411209,72.638519 233.365479,71.542328 
	C236.870224,61.267010 240.456985,51.085735 243.775894,40.817886 
	C244.778122,37.717194 247.007767,38.636810 249.015991,38.436020 
	C251.076584,38.229984 251.860641,39.200199 252.282883,41.203098 
	C253.470963,46.838612 254.921448,52.418808 256.565948,59.258015 
	C260.601562,52.800484 264.085571,47.256161 267.533813,41.689686 
	C268.592529,39.980633 269.475983,38.455982 271.994293,38.349567 
	C275.647308,38.195206 277.379303,38.852680 276.982300,43.176731 
	C276.221283,51.465504 275.824829,59.808048 275.757385,68.132172 
	C275.720215,72.723030 272.943359,71.883911 270.166199,72.062668 
	C266.447632,72.302048 267.269012,69.903931 267.390717,67.811256 
	C267.627869,63.733688 267.862183,59.655949 267.174347,55.269928 
	C264.215179,59.977318 261.146149,64.620712 258.349396,69.422699 
	C257.184906,71.422142 255.857025,72.320885 253.572327,72.019753 
	C251.121338,71.696701 251.662964,69.533707 251.273483,68.160881 
	C250.231110,64.486649 249.572525,60.704964 248.671188,56.987858 
	C248.521774,56.371655 248.495453,55.173370 247.393143,55.520061 
	C246.977661,55.650742 246.834839,56.648335 246.408600,57.606228 
z"
  />
<path
    fill="#C61C49"
    opacity="1.000000"
    stroke="none"
    d="
M308.821655,111.062096 
	C306.304810,105.972382 307.236755,101.592888 310.611206,97.810112 
	C313.756256,94.284492 317.711243,93.807045 321.973511,95.776306 
	C322.275635,95.915886 322.602081,96.225601 322.870270,96.180000 
	C324.796967,95.852425 327.157440,93.745865 328.525635,95.936409 
	C329.847168,98.052269 327.839142,100.693459 327.753906,103.168839 
	C327.725830,103.984261 327.327667,104.780151 327.216797,105.600922 
	C326.988892,107.288643 326.796875,109.139816 328.885315,109.757622 
	C330.812439,110.327713 331.961426,108.998566 332.855103,107.477745 
	C335.781952,102.496887 333.639008,94.934448 328.384186,91.704391 
	C317.536865,85.036758 303.186890,92.357948 302.321198,105.001450 
	C301.759277,113.207962 308.665924,119.202347 318.087585,119.116524 
	C319.565491,119.103065 322.403503,116.523972 322.817230,120.022163 
	C323.235291,123.556938 320.040070,123.629425 317.578705,123.807228 
	C307.279663,124.551239 298.409515,117.601051 297.216583,107.949562 
	C295.950745,97.708603 304.581146,86.670250 315.300873,85.052635 
	C320.476562,84.271622 325.608307,84.538376 330.383240,87.093559 
	C338.185608,91.268799 341.476105,101.123192 337.708618,109.051628 
	C335.177246,114.378716 329.960327,116.327629 324.905701,113.472122 
	C323.220337,112.520020 322.249603,112.381241 320.554260,113.379639 
	C316.281433,115.895981 312.286316,115.429359 308.821655,111.062096 
z"
  />
<path
    fill="#A1163B"
    opacity="1.000000"
    stroke="none"
    d="
M120.792923,121.332756 
	C122.504143,120.144867 123.989502,119.234032 125.790131,118.241730 
	C133.186340,116.277275 139.267380,112.160530 145.884384,109.235168 
	C157.973160,103.890747 169.839294,98.033905 182.090103,93.060516 
	C185.378464,91.725563 187.101715,90.041000 186.246902,86.049500 
	C194.193146,79.844627 203.118240,75.851265 211.582581,71.065605 
	C212.475983,70.560486 213.519531,70.736732 214.755463,71.459457 
	C214.325684,75.764732 212.631577,79.490364 210.929443,83.597366 
	C207.775513,87.501602 203.596664,89.073174 199.391052,90.481277 
	C195.809113,91.680580 193.480850,93.590401 192.942001,97.637192 
	C192.346542,102.108917 190.052536,105.941109 187.085449,109.805008 
	C186.328842,110.766541 185.644485,111.176292 184.437134,111.441170 
	C174.953308,113.465912 165.921616,115.656372 156.342163,117.165436 
	C155.142563,117.218903 154.354889,117.320877 153.204193,117.643333 
	C143.909256,120.161255 134.963928,122.398651 125.308990,122.683601 
	C123.925369,122.912666 122.876350,122.928459 121.435440,122.903992 
	C120.666962,122.528503 120.518173,122.106712 120.792923,121.332756 
z"
  />
<path
    fill="#01C499"
    opacity="1.000000"
    stroke="none"
    d="
M114.479874,137.300873 
	C111.436409,134.556335 108.839569,131.613876 106.100174,128.370239 
	C102.765541,123.047096 104.736443,117.701546 105.217628,112.537575 
	C105.510010,109.399818 105.117531,106.990715 102.498154,105.119133 
	C99.161461,102.735039 97.579727,98.947304 94.917191,95.501434 
	C94.052109,94.176155 93.970222,93.082695 94.195267,91.547867 
	C97.729301,80.776917 101.383896,70.474358 104.467331,60.000057 
	C107.286484,50.423546 110.637032,41.097614 115.237717,31.836617 
	C115.324936,31.271793 115.406662,31.101345 115.731178,30.784418 
	C116.108551,30.910072 116.243134,31.182205 116.828468,31.515530 
	C117.652222,33.050694 117.449844,34.551628 117.445740,36.481083 
	C116.946587,50.622597 114.281425,64.139343 113.980171,77.855789 
	C113.918159,80.679443 113.477249,83.460289 112.211594,86.412598 
	C112.162323,87.507675 109.764748,86.583801 111.256653,88.379242 
	C112.498764,90.820244 112.607185,93.234489 111.981575,95.363548 
	C110.614586,100.015701 112.123283,103.267761 116.165375,106.159538 
	C116.704437,115.265541 116.398476,123.973053 116.501114,132.678101 
	C116.520714,134.340561 116.502617,136.002411 114.479874,137.300873 
z"
  />
<path
    fill="#CB1C4B"
    opacity="1.000000"
    stroke="none"
    d="
M354.264252,93.271301 
	C353.251678,94.832489 352.308167,96.043877 351.801575,97.416512 
	C350.222504,101.695114 350.683167,105.664124 354.427124,108.669502 
	C357.498230,111.134789 363.258179,110.898026 366.561615,108.298561 
	C367.592316,107.487534 368.271057,106.191673 369.352448,105.490013 
	C372.071686,103.725647 375.793488,103.661163 377.830627,105.117302 
	C379.703430,106.456017 376.910278,109.119110 375.620514,110.808105 
	C370.525330,117.480362 361.744171,120.219154 353.732452,117.870918 
	C345.850250,115.560646 341.255981,108.523170 341.974243,99.859833 
	C342.654755,91.651810 349.147827,84.194298 357.347565,82.203041 
	C365.712067,80.171768 373.791626,82.899368 377.578339,89.284203 
	C378.649017,91.089508 381.084290,93.985352 378.740936,95.195740 
	C376.420044,96.394539 372.690552,97.047035 370.063141,94.135666 
	C365.075958,88.609512 360.934387,88.343178 354.264252,93.271301 
z"
  />
<path
    fill="#CA1C4A"
    opacity="1.000000"
    stroke="none"
    d="
M404.727112,115.972656 
	C404.144592,118.066605 402.782288,118.014763 401.424866,118.013023 
	C395.602356,118.005577 389.776154,117.886955 383.958801,118.060722 
	C380.928925,118.151230 380.762665,116.760612 381.237610,114.389206 
	C383.162750,104.776337 385.084290,95.161072 386.817444,85.512604 
	C387.249390,83.108109 388.104614,82.046669 390.644287,82.108162 
	C396.130859,82.240982 401.623138,82.118690 407.112518,82.166733 
	C408.484528,82.178741 410.583191,81.689224 410.121613,84.157509 
	C409.714386,86.335030 410.776398,89.634888 406.966522,89.885056 
	C404.150238,90.069977 401.285919,90.179245 398.491730,89.874825 
	C395.215332,89.517853 394.431396,91.411346 394.238251,93.919289 
	C393.979919,97.272903 396.643188,95.717972 398.082489,95.933784 
	C399.709534,96.177765 401.425598,95.815842 403.057587,96.043076 
	C404.544403,96.250092 407.246857,94.808563 406.967865,98.097321 
	C406.756500,100.588600 407.121796,103.769958 402.920471,103.478004 
	C400.768494,103.328461 398.577118,103.646858 396.438904,103.420280 
	C392.847565,103.039726 391.634552,104.917854 391.647247,108.053543 
	C391.661407,111.545654 394.444702,109.913399 396.057129,110.218826 
	C397.502686,110.492622 399.068268,110.463280 400.532776,110.244865 
	C405.110077,109.562218 406.092651,111.623970 404.727112,115.972656 
z"
  />
<path
    fill="#CA1C4A"
    opacity="1.000000"
    stroke="none"
    d="
M255.109726,81.900887 
	C258.592743,82.492683 261.233093,83.915947 262.824402,86.638206 
	C263.926422,88.523369 265.947510,91.497078 263.539551,92.680359 
	C261.472626,93.696037 257.647644,94.805237 255.634842,91.359131 
	C254.308502,89.088303 252.446899,88.613655 250.127975,89.132339 
	C248.690445,89.453880 247.744125,90.384674 247.681091,91.896881 
	C247.577042,94.393852 249.542511,95.197502 251.333359,96.095520 
	C253.413162,97.138420 255.598297,98.007217 257.569000,99.224663 
	C262.362762,102.186150 263.750366,107.258934 261.194214,112.196381 
	C258.654480,117.102089 254.077148,118.555351 249.070786,118.649452 
	C243.901108,118.746635 238.997269,117.550941 236.279160,112.531891 
	C235.283554,110.693489 233.285873,107.660347 236.219025,106.588615 
	C238.393784,105.793991 242.210388,104.352722 243.981461,108.300407 
	C244.638397,109.764702 245.594650,110.841660 247.218323,111.092896 
	C249.397858,111.430130 251.795822,111.723343 252.932327,109.327171 
	C254.175430,106.706253 252.202225,105.356972 250.186157,104.320511 
	C248.413040,103.408943 246.538086,102.694496 244.770813,101.772751 
	C240.594666,99.594635 238.007843,96.457085 238.680466,91.390610 
	C239.311264,86.639252 242.682663,82.977440 247.774002,82.081169 
	C250.034210,81.683296 252.404221,81.909348 255.109726,81.900887 
z"
  />
<path
    fill="#F4A600"
    opacity="1.000000"
    stroke="none"
    d="
M312.288391,50.513611 
	C311.512482,54.343895 310.999603,57.805157 310.122253,61.171410 
	C307.647217,70.667358 297.936646,75.334198 288.969147,71.456947 
	C284.260162,69.420944 281.421661,64.757172 282.213867,59.301476 
	C283.095428,53.230049 284.566742,47.246723 285.617035,41.196526 
	C286.425262,36.540779 289.973114,38.614029 292.316803,38.560421 
	C295.582489,38.485725 294.002075,41.206245 293.775269,42.638527 
	C293.074951,47.061108 291.917297,51.410694 291.198761,55.831135 
	C290.618652,59.400070 289.582336,63.443398 294.673737,64.802986 
	C298.220001,65.749969 301.212463,63.156376 302.310303,58.176235 
	C303.453461,52.990658 304.340027,47.749065 305.406555,42.545864 
	C306.191223,38.717892 309.393463,37.111385 313.019073,38.465733 
	C314.656830,39.077518 314.262177,40.203663 314.067383,41.299404 
	C313.544647,44.240108 312.950684,47.168152 312.288391,50.513611 
z"
  />
<path
    fill="#CB1C4B"
    opacity="1.000000"
    stroke="none"
    d="
M270.389038,90.323189 
	C270.727600,88.606529 271.005127,87.306129 271.181610,85.992149 
	C271.533630,83.371033 272.518982,81.795158 275.642365,82.088432 
	C279.101654,82.413246 282.636780,81.984978 286.083832,82.373352 
	C292.476776,83.093658 296.445374,86.856079 296.957764,92.170166 
	C297.489899,97.688965 294.181000,102.831955 288.657043,105.011459 
	C287.735168,105.375198 286.698364,105.972359 285.816376,105.830261 
	C278.105896,104.588043 275.050934,108.033318 274.451172,115.570091 
	C274.084290,120.180580 269.604553,117.805717 267.097015,117.823326 
	C263.695404,117.847191 265.830414,115.041016 266.045288,113.730774 
	C267.306671,106.040192 268.840393,98.394272 270.389038,90.323189 
z"
  />
<path
    fill="#F3A500"
    opacity="1.000000"
    stroke="none"
    d="
M361.910492,38.420048 
	C363.720032,38.420570 365.056122,38.346161 366.380157,38.440624 
	C368.016449,38.557358 370.500610,37.704884 369.944885,40.892357 
	C369.546204,43.179165 369.950195,46.164913 366.004913,45.827827 
	C363.528076,45.616199 361.009369,45.924110 358.525146,45.760654 
	C355.678741,45.573364 355.144165,47.345730 355.079651,49.502583 
	C355.002686,52.075584 357.068665,51.115170 358.338776,51.243198 
	C359.820892,51.392601 361.366119,51.075127 362.816681,51.335323 
	C364.399445,51.619225 367.309723,49.861324 367.013672,53.615589 
	C366.794434,56.395771 366.495087,59.033554 362.472931,58.412830 
	C360.523438,58.111973 358.466705,58.553097 356.497223,58.324688 
	C352.522095,57.863686 352.716064,60.896294 352.538483,63.174156 
	C352.311371,66.087120 354.829010,64.738640 356.113678,64.823067 
	C359.229126,65.027809 362.367096,64.889626 365.367950,64.889626 
	C365.925293,70.619591 363.763519,72.656670 358.351257,72.129501 
	C353.258545,71.633453 348.079559,72.023140 342.294739,72.023140 
	C344.301483,61.305466 346.244751,50.972237 348.164124,40.634575 
	C348.517303,38.732403 349.779358,38.381981 351.451294,38.408607 
	C354.777313,38.461567 358.104828,38.421604 361.910492,38.420048 
z"
  />
<path
    fill="#F5A700"
    opacity="1.000000"
    stroke="none"
    d="
M333.559509,53.404217 
	C337.998749,55.602947 340.579132,58.657661 339.721222,63.469070 
	C338.838684,68.418671 335.600311,71.193253 330.709412,72.221901 
	C323.820374,73.670784 317.338135,71.432343 315.102814,66.522278 
	C314.347809,64.863831 312.717194,62.080917 314.895050,61.386173 
	C317.045044,60.700302 320.572784,59.270100 322.383087,62.587296 
	C323.454285,64.550087 324.752563,65.772903 326.948639,65.825943 
	C328.656860,65.867203 330.348541,65.529770 331.035522,63.667015 
	C331.748444,61.733982 330.715210,60.485443 329.078796,59.645142 
	C326.867767,58.509785 324.601562,57.479244 322.412659,56.303940 
	C319.245667,54.603493 317.298950,51.962490 317.393921,48.309341 
	C317.495880,44.389099 319.327850,41.345402 322.883881,39.451160 
	C329.161621,36.107098 337.871063,37.880566 340.603394,43.272324 
	C341.409393,44.862797 343.201752,47.458782 341.069763,48.478359 
	C339.038696,49.449669 335.958984,49.970741 333.752838,47.768291 
	C333.184509,47.200920 333.011780,46.172565 332.390411,45.734970 
	C330.408508,44.339275 328.125275,44.219074 326.582794,46.128407 
	C324.899780,48.211720 326.320831,49.836258 328.296204,50.880398 
	C329.906311,51.731472 331.592621,52.438412 333.559509,53.404217 
z"
  />
<path
    fill="#966600"
    opacity="1.000000"
    stroke="none"
    d="
M178.695328,33.721519 
	C185.842407,45.478741 191.787308,57.440914 197.966324,69.647049 
	C197.476318,70.659363 196.799713,70.893837 195.639740,70.738701 
	C194.802475,70.530197 194.346390,70.359825 193.656387,69.874695 
	C189.102234,62.781300 182.311539,58.237488 177.242371,52.062252 
	C172.402710,46.166607 166.935654,40.779465 161.865082,34.587475 
	C161.409912,34.190731 161.233307,34.022243 160.837280,33.555630 
	C158.792862,30.164896 153.846039,28.743366 155.780609,23.448204 
	C161.402649,20.934502 170.882965,24.225763 175.634277,29.963724 
	C176.578659,31.104176 177.348450,32.386650 178.695328,33.721519 
z"
  />
<path
    fill="#009675"
    opacity="1.000000"
    stroke="none"
    d="
M114.987915,31.639645 
	C115.306442,32.254040 115.634300,33.155399 115.394295,33.864567 
	C109.015495,52.711746 103.775635,71.937241 96.365219,90.779388 
	C91.794724,91.431374 91.434784,87.896812 91.069328,85.222687 
	C90.269646,79.371216 90.114197,73.448593 92.968048,67.460861 
	C99.696648,54.930122 107.382500,43.487076 114.987915,31.639645 
z"
  />
<path
    fill="#7B112D"
    opacity="1.000000"
    stroke="none"
    d="
M125.368271,123.045082 
	C125.424683,121.642487 126.421577,121.225128 127.645866,120.981262 
	C135.791931,119.358620 143.929306,117.692413 152.475128,116.038383 
	C153.542297,116.081848 154.126678,115.903130 154.858368,115.238846 
	C162.650818,113.547623 170.193054,112.031532 177.748962,110.586853 
	C179.509003,110.250336 181.315475,110.156639 183.529114,109.950073 
	C186.173935,112.786049 184.027573,114.543640 182.278229,116.259560 
	C177.642746,120.806480 172.088028,123.542175 165.277191,124.534012 
	C151.878510,124.208397 138.820343,123.700836 125.368271,123.045082 
z"
  />
<path
    fill="#00735A"
    opacity="1.000000"
    stroke="none"
    d="
M92.752670,67.181343 
	C93.028000,71.737328 93.010742,76.462952 92.990532,81.188553 
	C92.976158,84.547668 93.621460,87.723457 95.851517,90.789001 
	C96.166161,92.073845 96.202904,93.108459 96.279808,94.530533 
	C96.915520,100.599731 95.306686,105.599251 91.268387,110.084396 
	C80.368111,99.824562 78.929054,88.878387 86.507469,76.544884 
	C88.418152,73.435326 90.471199,70.413246 92.752670,67.181343 
z"
  />
<path
    fill="#734E00"
    opacity="1.000000"
    stroke="none"
    d="
M178.935349,33.656601 
	C173.840149,31.419115 169.814514,26.978552 164.052902,25.352312 
	C161.645615,24.672846 159.346619,23.816362 156.387329,24.019176 
	C155.023956,24.688135 154.029724,24.673540 152.676208,24.070042 
	C150.087158,21.141535 147.461548,18.742493 145.277649,15.939567 
	C144.072327,14.392609 142.591492,13.020657 143.715134,10.482410 
	C154.966339,6.460416 165.889389,10.252801 171.902069,20.156321 
	C174.473541,24.391790 176.578979,28.910191 178.935349,33.656601 
z"
  />
<path
    fill="#7B112D"
    opacity="1.000000"
    stroke="none"
    d="
M186.166016,109.263123 
	C188.270325,104.184570 190.709106,99.497681 191.113007,94.064812 
	C191.295654,91.608177 193.209534,90.216080 195.153214,89.425117 
	C200.038223,87.437218 205.060150,85.785736 210.393341,83.961365 
	C208.222244,91.045387 205.684998,98.167404 202.978714,105.613113 
	C197.644775,108.479378 192.460312,110.934875 186.166016,109.263123 
z"
  />
<path
    fill="#5E0D23"
    opacity="1.000000"
    stroke="none"
    d="
M185.658478,109.035934 
	C191.310226,108.181374 196.462128,106.065552 202.396332,105.948036 
	C202.603836,108.054329 201.689941,109.889008 200.248901,111.809669 
	C199.569199,111.653732 199.107712,111.438004 198.635635,111.241020 
	C198.939468,111.337914 199.231400,111.463547 199.749084,111.792839 
	C197.062424,120.020638 190.816223,124.001419 182.771347,124.881119 
	C177.204208,125.489861 171.508728,124.924759 165.403641,124.800064 
	C169.003235,120.822182 174.957077,120.022560 179.020157,116.052643 
	C180.766037,114.346779 182.970917,113.105560 183.895859,110.290283 
	C184.442795,109.686195 184.927948,109.423470 185.658478,109.035934 
z"
  />
<path
    fill="#966701"
    opacity="1.000000"
    stroke="none"
    d="
M143.539551,10.156415 
	C146.078751,14.815759 150.719223,17.559296 153.022797,22.455019 
	C151.580948,26.333483 148.034180,25.852015 145.164917,26.727137 
	C143.270645,27.304882 141.353622,27.787121 138.980011,28.027550 
	C136.997391,27.964928 135.833466,26.622425 133.837952,26.499947 
	C129.306183,24.947161 126.306519,21.767860 122.913582,19.182007 
	C121.535278,18.131563 120.869209,16.592905 121.725555,14.456724 
	C128.854385,11.964301 136.035095,11.266038 143.539551,10.156415 
z"
  />
<path
    fill="#009675"
    opacity="1.000000"
    stroke="none"
    d="
M91.023903,110.495377 
	C91.911079,105.081772 93.502037,100.146606 96.035950,95.173508 
	C100.160667,98.259804 102.586761,102.935120 107.114105,105.738693 
	C108.936378,106.867142 107.960236,109.764740 107.730011,111.886581 
	C107.176292,116.989754 106.575264,122.087791 105.975471,127.628479 
	C101.029434,122.309593 96.101250,116.550148 91.023903,110.495377 
z"
  />
<path
    fill="#C28501"
    opacity="1.000000"
    stroke="none"
    d="
M121.539124,14.121506 
	C124.314720,19.369654 130.096130,20.805922 133.879929,24.967691 
	C135.182693,26.072105 135.985260,27.101397 136.403778,28.850531 
	C137.013184,30.982138 136.577591,32.472473 135.027557,34.008469 
	C132.190552,35.314529 130.749878,33.150639 128.963760,32.188606 
	C121.671928,28.261080 114.637375,23.882193 107.478958,19.719511 
	C106.594681,19.205294 105.765678,18.684723 105.768967,17.183193 
	C110.875969,15.445610 115.980453,14.664550 121.539124,14.121506 
z"
  />
<path
    fill="#AA5E72"
    opacity="1.000000"
    stroke="none"
    d="
M215.279449,71.482231 
	C205.619278,75.756287 196.878403,81.140686 187.185333,86.105362 
	C185.676987,86.449295 184.836960,86.318199 184.070526,85.274521 
	C189.820236,81.488503 195.697952,78.005959 201.808456,74.268494 
	C206.846603,71.405571 211.651962,68.797562 216.533615,66.148155 
	C217.624161,68.223709 216.074020,69.641739 215.279449,71.482231 
z"
  />
<path
    fill="#53C4AB"
    opacity="1.000000"
    stroke="none"
    d="
M114.091583,137.778809 
	C115.882034,127.341614 114.605591,117.073654 115.096054,106.396027 
	C114.861374,105.483315 114.927696,105.080177 115.523041,104.536987 
	C116.261711,104.275162 116.703201,104.299774 117.390488,104.663879 
	C117.763351,110.624741 117.883995,116.361176 118.093063,122.561340 
	C118.081039,128.706299 117.980598,134.387527 117.451813,140.529877 
	C115.633911,140.436676 114.953537,139.187363 114.091583,137.778809 
z"
  />
<path
    fill="#BA974E"
    opacity="1.000000"
    stroke="none"
    d="
M105.590836,16.775007 
	C115.005661,22.446348 124.132492,28.066086 133.570129,33.811573 
	C134.043152,34.077793 134.205353,34.218266 134.448547,34.670258 
	C134.487411,35.192181 134.445297,35.402584 134.183212,35.847946 
	C128.760025,33.180809 123.556816,30.278727 117.983650,27.267132 
	C112.386589,24.008003 107.159485,20.858381 101.262764,17.305273 
	C103.091980,17.041822 104.197418,16.882614 105.590836,16.775007 
z"
  />
<path
    fill="#C48600"
    opacity="1.000000"
    stroke="none"
    d="
M194.838867,70.181442 
	C195.895752,69.928032 196.590103,69.974785 197.632446,70.015457 
	C198.710098,71.163254 199.439743,72.317131 200.370285,73.755074 
	C198.493713,74.119705 197.018814,72.742653 195.135376,71.588264 
	C194.783463,71.028847 194.629898,70.755219 194.838867,70.181442 
z"
  />
<path
    fill="#009675"
    opacity="1.000000"
    stroke="none"
    d="
M117.442322,27.444550 
	C117.613686,27.157625 117.600052,27.062382 117.594543,27.082548 
	C117.710686,27.753296 117.832336,28.403877 117.897125,29.548416 
	C117.558105,30.053560 117.275940,30.064747 116.681236,29.790047 
	C116.669441,28.913265 116.970200,28.322371 117.442322,27.444550 
z"
  />
<path
    fill="#7B112D"
    opacity="1.000000"
    stroke="none"
    d="
M120.715477,121.148926 
	C121.020470,121.457573 121.022156,121.859436 121.033691,122.562523 
	C120.534386,122.936859 120.025223,123.009972 119.127762,123.070763 
	C119.297035,122.453011 119.854599,121.847580 120.715477,121.148926 
z"
  />
<path
    fill="#01C499"
    opacity="1.000000"
    stroke="none"
    d="
M116.243561,29.671886 
	C116.611778,29.599806 116.854866,29.695452 117.469116,29.916735 
	C117.870262,30.494564 117.900253,30.946754 117.862854,31.732765 
	C117.678307,32.266689 117.561150,32.466793 117.260277,32.371552 
	C116.889145,31.840315 116.701714,31.604429 116.244118,31.003242 
	C115.899544,30.349663 115.947693,30.083555 116.243561,29.671886 
z"
  />
<path
    fill="#4EC0A7"
    opacity="1.000000"
    stroke="none"
    d="
M117.072144,141.192612 
	C117.023460,140.991013 117.356079,140.978745 117.522476,140.981995 
	C117.737251,141.451752 117.769470,141.895828 117.072144,141.192612 
z"
  />
<path
    fill="#C88703"
    opacity="1.000000"
    stroke="none"
    d="
M136.346207,46.699535 
	C148.530762,53.578186 160.318314,60.307594 172.116135,67.018929 
	C175.479218,68.932053 179.172287,70.814545 178.728714,75.413879 
	C178.267166,80.199310 174.177551,82.003494 170.450211,83.849945 
	C169.617310,84.262535 168.441422,83.842896 167.397430,84.912086 
	C166.797562,85.251678 166.544037,85.458046 166.159119,85.882935 
	C166.006210,86.075005 166.009064,86.011086 166.038895,86.022636 
	C165.589233,86.416306 164.988907,86.487793 164.228424,86.885391 
	C164.024841,87.099831 164.030334,87.030800 164.056641,87.053314 
	C163.569702,87.362434 163.024872,87.563377 162.010529,87.659775 
	C158.732559,86.331680 158.898972,83.981598 159.380707,81.470673 
	C159.744354,79.575172 159.722366,77.613190 160.377487,75.354813 
	C160.447998,74.694366 160.472229,74.435226 160.531357,73.797325 
	C164.065598,67.881592 163.809982,66.759476 158.204895,64.582291 
	C149.364227,59.563381 141.453400,53.556995 131.952347,50.470730 
	C131.323654,50.266514 130.961411,49.632092 130.543335,48.658604 
	C131.364471,44.752739 133.999878,46.737598 136.346207,46.699535 
z"
  />
<path
    fill="#FAAD05"
    opacity="1.000000"
    stroke="none"
    d="
M134.216309,34.943569 
	C134.059052,34.618057 133.988403,34.273613 133.934677,34.105469 
	C134.294968,32.583382 134.709000,31.229446 135.166809,29.522961 
	C135.460159,28.046110 136.256836,27.541029 137.670624,27.375246 
	C145.127457,28.215315 149.311325,33.570629 154.482010,37.981712 
	C155.262314,38.832474 155.802811,39.451115 156.928558,39.832542 
	C168.757584,47.381748 179.653580,55.642624 189.915436,64.738586 
	C190.435837,65.199867 190.648956,65.818176 190.737000,66.845673 
	C190.596832,67.434296 190.489838,67.655899 190.065475,68.065979 
	C180.349747,62.910065 170.951416,57.565689 161.239563,52.058167 
	C160.479996,51.268459 160.066864,50.608486 159.020737,50.265007 
	C158.733551,50.230850 158.833145,50.182522 158.854156,50.233730 
	C158.341034,49.161251 157.217636,49.146175 155.918152,48.825161 
	C155.418198,48.822117 155.265472,48.768173 155.121735,48.484947 
	C154.882019,48.007828 154.638535,47.679348 154.090759,47.232494 
	C153.817963,47.090759 153.955368,47.174957 153.912216,47.243004 
	C153.172577,45.912846 151.585052,46.100613 150.202850,45.240044 
	C149.916031,45.067677 149.976044,45.037201 149.981003,45.070496 
	C149.775360,44.801956 149.533295,44.528336 148.979828,44.272438 
	C148.705139,44.257290 148.805756,44.341702 148.761124,44.389870 
	C147.859451,42.591507 145.775269,42.724144 144.059631,41.646423 
	C143.740860,41.544586 143.607849,41.675449 143.535767,41.616234 
	C141.110977,38.481850 136.974655,37.985168 134.216309,34.943569 
z"
  />
<path
    fill="#CF204F"
    opacity="1.000000"
    stroke="none"
    d="
M187.143661,86.173355 
	C190.771149,91.066742 190.725494,91.881882 185.918594,93.950935 
	C167.299515,101.965240 148.639008,109.883392 129.975204,117.793205 
	C128.945160,118.229752 127.746414,118.268257 126.365799,118.326141 
	C129.695282,116.206352 133.285156,114.252449 137.138977,112.111717 
	C137.845139,111.875389 138.239853,111.714211 138.799622,111.181511 
	C139.019424,110.938675 138.998978,111.003693 138.967285,110.991165 
	C139.409134,110.583549 140.010620,110.512047 140.782013,110.126404 
	C140.994583,109.920120 140.977905,109.982567 140.952927,109.962044 
	C141.636002,109.474609 142.420258,109.176590 143.514954,108.803131 
	C143.882431,108.535583 143.952896,108.373230 144.229263,108.043274 
	C144.871490,107.851082 145.256332,107.697487 145.804382,107.177704 
	C146.019058,106.940521 146.002151,107.005775 145.970398,106.994461 
	C146.409393,106.582291 147.012466,106.512306 147.781677,106.121994 
	C147.992584,105.913620 147.986450,105.978516 147.957184,105.964203 
	C150.235596,104.745087 152.680069,103.814331 155.164169,102.254593 
	C155.743271,101.761337 156.109604,101.535095 156.723419,101.117157 
	C156.938904,100.874458 156.986176,100.949715 156.946777,100.929169 
	C165.011108,97.291656 172.387360,92.319160 180.304214,88.355576 
	C182.208176,87.402351 184.034912,86.252815 186.531860,85.859909 
	C186.896713,85.899818 187.053589,86.089485 187.143661,86.173355 
z"
  />
<path
    fill="#CA4B2D"
    opacity="1.000000"
    stroke="none"
    d="
M136.529877,46.612587 
	C134.897095,47.269333 132.685822,46.307941 131.113464,49.071621 
	C129.206940,61.679417 129.074829,73.556122 130.011505,85.508560 
	C130.327637,89.542595 130.905365,92.670578 135.355682,93.731743 
	C136.142639,93.919380 136.716568,94.649750 137.362183,95.712585 
	C137.598114,96.321678 137.655853,96.573036 137.690765,97.200241 
	C136.986389,99.636406 135.198364,99.425476 133.591553,99.531181 
	C131.402039,99.675224 129.906860,100.636383 129.132782,103.048782 
	C126.051125,101.960480 125.877182,99.412201 125.854607,96.898636 
	C125.726166,82.603767 125.573624,68.308289 125.593155,54.013241 
	C125.602913,46.868008 129.191437,44.431007 136.529877,46.612587 
z"
  />
<path
    fill="#D9758F"
    opacity="1.000000"
    stroke="none"
    d="
M186.652405,85.697845 
	C177.328217,91.323540 167.918213,97.051537 157.279175,101.021210 
	C165.251465,94.914955 174.548843,90.518867 183.610779,85.071655 
	C184.764374,85.145996 185.586243,85.320938 186.652405,85.697845 
z"
  />
<path
    fill="#F8C96F"
    opacity="1.000000"
    stroke="none"
    d="
M137.023712,98.137268 
	C136.894394,97.733894 136.906525,97.606392 136.936493,97.549789 
	C137.026794,97.004158 137.000259,96.330788 137.366791,96.109451 
	C144.048523,92.074699 150.887405,88.425987 159.485107,88.495392 
	C155.592850,93.382286 149.700470,95.448257 144.304810,98.916428 
	C142.736053,99.755791 141.329071,99.822762 139.540543,100.030640 
	C138.243866,99.819008 137.608994,99.298752 137.023712,98.137268 
z"
  />
<path
    fill="#73FFE0"
    opacity="1.000000"
    stroke="none"
    d="
M117.723267,104.433624 
	C117.248390,104.888397 116.854073,104.888489 116.162369,104.906418 
	C114.533455,104.037109 113.919319,102.756546 113.870796,101.193443 
	C113.704079,95.823647 113.082718,90.437187 114.712479,84.718674 
	C115.490875,83.834778 116.079491,83.586105 117.225601,83.756851 
	C117.723862,90.620605 117.763847,97.299774 117.723267,104.433624 
z"
  />
<path
    fill="#D6B277"
    opacity="1.000000"
    stroke="none"
    d="
M138.479553,98.764526 
	C140.253860,98.966194 141.680099,98.971855 143.533676,98.985756 
	C139.611298,101.155441 136.261185,105.765457 130.244049,104.224121 
	C129.966187,98.035751 135.080307,99.860901 138.479553,98.764526 
z"
  />
<path
    fill="#D7AA50"
    opacity="1.000000"
    stroke="none"
    d="
M138.647766,98.730827 
	C135.785156,100.023140 132.800140,101.195473 130.167664,103.679535 
	C129.631332,103.997833 129.332565,103.891045 128.962677,103.428719 
	C128.598648,102.432297 128.286942,101.662476 128.127396,100.862320 
	C127.538689,97.909927 127.673889,95.794533 131.711090,97.345299 
	C133.025055,97.850014 134.618149,97.627998 136.488983,97.736130 
	C137.418900,97.989632 137.943405,98.245377 138.647766,98.730827 
z"
  />
<path
    fill="#4EC0A7"
    opacity="1.000000"
    stroke="none"
    d="
M117.406387,46.921791 
	C117.907249,58.043850 117.950890,69.102913 117.892838,80.626724 
	C115.305756,80.598206 115.535896,78.550415 115.562019,76.843376 
	C115.626930,72.603218 115.197708,68.389717 115.181137,63.699387 
	C115.486031,58.307991 115.823349,53.385799 116.237762,48.016624 
	C116.558792,47.334534 116.753983,47.096664 117.406387,46.921791 
z"
  />
<path
    fill="#4AFFD7"
    opacity="1.000000"
    stroke="none"
    d="
M116.457153,62.960442 
	C117.116188,68.695114 117.274773,74.515175 117.612259,80.713348 
	C117.817093,81.810074 117.843025,82.528687 117.776428,83.594376 
	C117.336731,83.971428 116.989571,84.001411 116.381500,84.047508 
	C115.514511,83.769104 114.758858,83.393585 114.667892,82.789680 
	C113.663567,76.122559 113.401207,69.487038 116.457153,62.960442 
z"
  />
<path
    fill="#EABD5C"
    opacity="1.000000"
    stroke="none"
    d="
M134.018707,34.983192 
	C137.409103,36.395031 141.031296,37.758507 143.491577,41.200958 
	C140.437576,39.908413 137.411484,38.259811 134.174301,36.347050 
	C133.968292,35.838036 133.973343,35.593182 134.018707,34.983192 
z"
  />
<path
    fill="#D06783"
    opacity="1.000000"
    stroke="none"
    d="
M156.231186,102.093735 
	C153.845673,104.145844 151.488342,105.583504 148.294525,106.004181 
	C149.992569,103.746635 152.919205,102.892693 155.661957,101.157379 
	C156.128860,101.309174 156.259293,101.527771 156.231186,102.093735 
z"
  />
<path
    fill="#2AC8A5"
    opacity="1.000000"
    stroke="none"
    d="
M117.927521,46.524284 
	C117.863617,46.984787 117.526543,46.985462 117.358063,46.989716 
	C115.680504,44.091923 116.847557,41.000751 116.753677,37.596695 
	C116.987518,35.760639 117.022575,34.340633 117.067101,32.498413 
	C117.076569,32.076199 117.435913,32.064674 117.615692,32.065628 
	C117.860779,36.732319 117.926102,41.398048 117.927521,46.524284 
z"
  />
<path
    fill="#EABD5C"
    opacity="1.000000"
    stroke="none"
    d="
M143.905518,41.819607 
	C145.983353,40.887730 147.375580,42.118015 148.655762,44.084866 
	C147.167725,43.656898 145.618942,42.875763 143.905518,41.819607 
z"
  />
<path
    fill="#FAAD05"
    opacity="1.000000"
    stroke="none"
    d="
M194.986969,69.748810 
	C195.146484,70.116119 195.091553,70.350967 194.986816,70.944145 
	C193.345093,70.462585 191.753174,69.622681 189.954666,68.518616 
	C189.748093,68.254440 189.869186,68.132591 189.929642,68.071564 
	C191.290009,66.868423 192.396576,67.507202 193.783905,68.635628 
	C194.318222,69.126892 194.545395,69.371613 194.986969,69.748810 
z"
  />
<path
    fill="#EABD5C"
    opacity="1.000000"
    stroke="none"
    d="
M150.042267,45.381714 
	C151.502609,44.775192 152.705185,45.385361 153.749695,46.979385 
	C152.353775,47.418110 151.390320,46.260983 150.042267,45.381714 
z"
  />
<path
    fill="#E9B84F"
    opacity="1.000000"
    stroke="none"
    d="
M155.915909,48.975021 
	C157.003754,47.856697 157.916397,48.567074 158.790283,49.989101 
	C157.991501,49.915951 157.107834,49.546959 155.915909,48.975021 
z"
  />
<path
    fill="#BE5672"
    opacity="1.000000"
    stroke="none"
    d="
M143.530090,108.692596 
	C143.324371,109.625000 142.538025,110.027275 141.219696,109.974533 
	C141.309952,108.799332 142.292755,108.768562 143.530090,108.692596 
z"
  />
<path
    fill="#CEA54D"
    opacity="1.000000"
    stroke="none"
    d="
M161.415756,87.143173 
	C162.109787,86.918701 162.678146,86.913628 163.664719,86.992195 
	C163.977539,88.053993 163.029938,88.081688 162.167633,88.594833 
	C161.762314,88.552444 161.638611,88.438652 161.406952,88.096527 
	C161.296005,87.699638 161.293045,87.531105 161.415756,87.143173 
z"
  />
<path
    fill="#E9B84F"
    opacity="1.000000"
    stroke="none"
    d="
M158.839600,50.509205 
	C159.668137,50.085800 160.383789,50.358139 160.839691,51.592667 
	C160.265930,51.525864 159.605789,51.156712 158.839600,50.509205 
z"
  />
<path
    fill="#BE5672"
    opacity="1.000000"
    stroke="none"
    d="
M140.683380,109.912628 
	C140.513153,110.257759 140.031738,110.595398 139.242950,110.955841 
	C139.414444,110.620811 139.893295,110.262978 140.683380,109.912628 
z"
  />
<path
    fill="#D06783"
    opacity="1.000000"
    stroke="none"
    d="
M147.684280,105.917465 
	C147.522034,106.270599 147.051483,106.627571 146.259796,106.983841 
	C146.417755,106.629196 146.896866,106.275246 147.684280,105.917465 
z"
  />
<path
    fill="#CEA54D"
    opacity="1.000000"
    stroke="none"
    d="
M164.343811,87.118973 
	C164.492691,86.739960 164.960541,86.380096 165.748566,86.027206 
	C165.600067,86.402168 165.131424,86.770149 164.343811,87.118973 
z"
  />
<path
    fill="#F8C96F"
    opacity="1.000000"
    stroke="none"
    d="
M161.003143,87.578918 
	C161.445099,87.773354 161.528381,87.954338 161.748840,88.400780 
	C161.483368,88.766434 161.080704,88.866631 160.366592,89.014725 
	C160.055145,89.062622 159.910080,88.844528 159.838440,88.734909 
	C159.910568,88.148804 160.210190,87.801361 161.003143,87.578918 
z"
  />
<path
    fill="#BE5672"
    opacity="1.000000"
    stroke="none"
    d="
M138.685257,110.982605 
	C138.688690,111.204643 138.357956,111.470612 137.715057,111.830734 
	C137.718979,111.625435 138.035034,111.325989 138.685257,110.982605 
z"
  />
<path
    fill="#D06783"
    opacity="1.000000"
    stroke="none"
    d="
M145.695068,106.983521 
	C145.703323,107.208214 145.387604,107.475914 144.753510,107.809639 
	C144.747116,107.592621 145.059097,107.309570 145.695068,106.983521 
z"
  />
<path
    fill="#D9758F"
    opacity="1.000000"
    stroke="none"
    d="
M156.319885,102.234863 
	C156.061493,102.215935 156.050354,101.990761 156.018799,101.428085 
	C156.142166,100.998077 156.285934,100.905579 156.684296,100.843773 
	C156.814972,101.259178 156.691055,101.643898 156.319885,102.234863 
z"
  />
<path
    fill="#EABD5C"
    opacity="1.000000"
    stroke="none"
    d="
M153.838654,47.432793 
	C154.163849,47.316875 154.509750,47.542992 154.974823,48.064377 
	C154.682449,48.164707 154.270889,47.969769 153.838654,47.432793 
z"
  />
<path
    fill="#CEA54D"
    opacity="1.000000"
    stroke="none"
    d="
M166.277435,86.034760 
	C166.199249,85.799706 166.392273,85.524414 166.828964,85.160431 
	C166.897964,85.379341 166.723312,85.686935 166.277435,86.034760 
z"
  />
<path
    fill="#EABD5C"
    opacity="1.000000"
    stroke="none"
    d="
M148.766632,44.557575 
	C149.051422,44.370457 149.397705,44.483627 149.864975,44.850288 
	C149.600006,45.021812 149.214066,44.939838 148.766632,44.557575 
z"
  />
<path
    fill="#080103"
    opacity="1.000000"
    stroke="none"
    d="
M314.639526,101.581131 
	C317.162140,99.562073 319.529663,99.143608 321.331055,101.664742 
	C322.838898,103.775063 322.284607,106.078568 320.515869,107.929100 
	C318.974274,109.541962 316.909760,109.922424 315.128296,108.742020 
	C312.355988,106.905106 312.759216,104.369804 314.639526,101.581131 
z"
  />
<path
    fill="#9E485E"
    opacity="1.000000"
    stroke="none"
    d="
M154.795715,115.083847 
	C154.975693,116.252640 155.392334,118.180679 152.991943,116.300827 
	C153.416443,115.734261 153.952133,115.432129 154.795715,115.083847 
z"
  />
<path
    fill="#03FDC6"
    opacity="1.000000"
    stroke="none"
    d="
M116.745880,37.501125 
	C116.994034,40.154060 117.035614,43.127480 117.133385,46.547432 
	C117.115791,51.985512 117.042007,56.977047 116.962906,62.421818 
	C115.219620,69.557281 116.316071,76.371849 116.066467,83.592331 
	C116.017952,90.709747 115.915321,97.355858 115.838837,104.463120 
	C115.657158,105.120331 115.472038,105.335884 115.191315,105.746918 
	C108.901886,105.989868 108.606133,105.715439 109.051285,99.516785 
	C109.311844,95.888618 109.723877,92.271317 110.066605,87.909027 
	C112.386482,77.781586 112.616493,68.107330 113.966248,58.586132 
	C114.945023,51.681793 115.690056,44.744308 116.745880,37.501125 
z"
  />
<path
    fill="#43D4B4"
    opacity="1.000000"
    stroke="none"
    d="
M109.938606,86.820488 
	C110.065445,87.168915 110.046967,87.446266 110.041214,87.582283 
	C108.585510,88.639061 107.096992,89.558273 105.731361,87.663750 
	C105.199516,86.925926 105.264297,85.993675 106.079018,85.482361 
	C107.606255,84.523888 108.899178,84.889465 109.938606,86.820488 
z"
  />
<path
    fill="#0F0206"
    opacity="1.000000"
    stroke="none"
    d="
M287.839478,93.924255 
	C287.679810,94.778160 287.590485,95.279999 287.361420,95.706871 
	C285.622253,98.947929 282.562836,98.766693 279.578339,98.573303 
	C277.885773,98.463631 277.830933,97.029854 278.349854,96.006950 
	C279.366150,94.003624 277.658203,90.501755 281.280029,89.996124 
	C284.161713,89.593826 287.022156,89.838409 287.839478,93.924255 
z"
  />
<path
    fill="#C48600"
    opacity="1.000000"
    stroke="none"
    d="
M194.018799,68.548340 
	C192.957108,68.610794 191.823181,68.339401 190.339661,68.039276 
	C188.999771,65.045868 186.182053,63.967411 183.975708,62.310131 
	C174.929077,55.514858 165.816132,48.807869 156.396790,41.969540 
	C155.124466,41.541912 154.078293,41.395168 153.356140,40.147987 
	C149.020126,35.191776 143.448547,32.238949 138.415009,28.079086 
	C138.013763,27.703928 137.876709,27.532595 137.991638,27.149548 
	C142.533676,24.230305 147.474487,23.809977 152.704102,22.859829 
	C153.881424,23.108683 154.642624,23.439768 155.685120,23.904976 
	C157.136902,27.382240 160.606216,29.076891 161.958496,32.667042 
	C161.782593,33.247532 161.536804,33.463043 161.262665,33.645336 
	C160.996628,33.034050 161.063950,33.789398 161.798355,33.195587 
	C166.011780,33.934727 167.310150,37.843632 169.772888,40.400074 
	C177.041885,47.945652 183.967361,55.824375 190.947510,63.643929 
	C192.147705,64.988457 192.956802,66.682106 194.018799,68.548340 
z"
  />
<path
    fill="#8D5262"
    opacity="1.000000"
    stroke="none"
    d="
M199.993103,111.986542 
	C199.226746,112.276802 198.488647,112.668327 197.702042,112.877014 
	C196.246094,113.263298 195.045456,112.792793 194.453018,111.377480 
	C193.921570,110.107864 194.535980,109.106255 195.650421,108.493019 
	C197.052277,107.721649 198.214355,108.229546 199.034164,109.481010 
	C199.384995,110.016541 199.519196,110.693985 199.856720,111.649216 
	C199.961609,111.991478 199.999496,112.005325 199.993103,111.986542 
z"
  />
<path
    fill="#CEA54D"
    opacity="1.000000"
    stroke="none"
    d="
M138.054199,26.643436 
	C138.243591,26.937834 138.169434,27.404730 138.160126,27.639996 
	C137.371170,28.242556 136.591522,28.609850 135.511261,29.073778 
	C134.220978,28.308792 133.863892,27.217669 134.071960,25.581635 
	C135.535156,25.014332 136.919144,24.946514 138.054199,26.643436 
z"
  />
<path
    fill="#49B49D"
    opacity="1.000000"
    stroke="none"
    d="
M96.269470,109.243256 
	C97.446739,107.127319 98.820091,106.709915 100.260658,108.412506 
	C101.141800,109.453911 100.862953,110.757736 99.724823,111.386040 
	C97.865906,112.412231 96.592705,111.727829 96.269470,109.243256 
z"
  />
<path
    fill="#FFD16E"
    opacity="1.000000"
    stroke="none"
    d="
M131.054749,49.005363 
	C135.989883,48.367569 139.945831,50.754684 143.874908,53.257160 
	C148.731400,56.350311 154.193924,58.494095 158.682312,62.776287 
	C161.799530,65.482994 164.035767,68.212166 162.315765,72.727188 
	C162.089767,73.077827 161.989273,73.503998 161.941284,73.717598 
	C157.490341,79.325180 151.861359,82.915154 144.947266,85.097656 
	C144.259903,84.877480 143.960892,84.593239 143.676224,84.601944 
	C134.222687,84.891243 130.648468,78.743988 128.565735,70.472809 
	C128.485245,65.150200 128.522614,60.247284 128.493057,55.344620 
	C128.480072,53.192200 128.472595,51.065941 130.687424,49.279430 
	C131.071381,49.063549 131.082596,49.008152 131.054749,49.005363 
z"
  />
<path
    fill="#FFAF04"
    opacity="1.000000"
    stroke="none"
    d="
M130.672882,49.099186 
	C127.796478,53.556587 129.433609,58.731159 129.086395,63.623104 
	C128.933395,65.778793 129.045227,67.953293 129.098083,70.587463 
	C131.742889,75.765656 130.446503,81.280602 132.532028,86.318237 
	C133.131943,86.656563 133.499313,86.794434 134.179459,86.923759 
	C137.935181,86.564964 140.370514,83.052017 144.518570,83.774323 
	C150.530685,80.925087 155.227310,76.419144 161.553284,74.013550 
	C162.502701,78.080276 161.479675,82.150085 161.418015,86.592178 
	C161.541428,86.923767 161.483337,87.264061 161.422577,87.428223 
	C160.950073,87.828911 160.538345,88.065437 159.946686,88.463623 
	C152.293854,91.191292 145.404404,95.235374 137.353973,97.406693 
	C130.016769,94.868141 127.113747,90.183563 127.671883,82.475319 
	C128.331253,73.368820 127.777122,64.177742 127.869804,55.024551 
	C127.891945,52.837452 127.222137,50.169628 130.672882,49.099186 
z"
  />
<path
    fill="#DDB868"
    opacity="1.000000"
    stroke="none"
    d="
M162.415512,72.941544 
	C161.092804,69.961609 160.095810,66.845390 159.015793,63.362801 
	C165.550644,65.282013 166.610611,68.011971 162.415512,72.941544 
z"
  />
<path
    fill="#FDBF39"
    opacity="1.000000"
    stroke="none"
    d="
M153.166977,40.212143 
	C154.231796,40.054802 155.100418,40.508396 155.901016,41.617302 
	C154.516159,42.681473 153.207153,42.965145 153.166977,40.212143 
z"
  />
<path
    fill="#CEA54D"
    opacity="1.000000"
    stroke="none"
    d="
M161.998291,32.994038 
	C161.743256,33.711021 161.613876,34.579327 160.681915,34.682873 
	C160.457352,34.707825 160.167709,34.147083 159.908005,33.855682 
	C160.413834,33.594601 160.919662,33.333523 161.716949,33.040535 
	C162.008392,33.008629 162.004333,32.996071 161.998291,32.994038 
z"
  />
<path
    fill="#FFDB8D"
    opacity="1.000000"
    stroke="none"
    d="
M132.337769,89.945007 
	C129.325546,89.228889 129.111008,87.045044 129.085144,84.852577 
	C129.034531,80.562408 129.082916,76.271080 129.124817,71.517952 
	C129.455475,71.200684 129.937943,71.276817 130.020691,71.500710 
	C132.513306,78.244446 137.286697,82.168953 144.624023,83.501930 
	C141.448318,85.743835 138.048187,87.725136 134.302368,89.759987 
	C133.528687,89.889420 133.097565,89.936546 132.337769,89.945007 
z"
  />
<path
    fill="#FFCD63"
    opacity="1.000000"
    stroke="none"
    d="
M132.183350,90.092606 
	C132.454361,89.447060 132.967331,89.247765 133.779419,89.679260 
	C133.544266,90.405579 133.017563,90.578201 132.183350,90.092606 
z"
  />
</svg>
