<svg
  version="1.1"
  id="Layer_1"
  xmlns="http://www.w3.org/2000/svg"
  xmlns:xlink="http://www.w3.org/1999/xlink"
  x="0px"
  y="0px"
  width="100%"
  viewBox="0 0 500 500"
  enable-background="new 0 0 500 500"
  xml:space="preserve"
>
<path
    fill="#000000"
    opacity="1.000000"
    stroke="none"
    d="
M1.000000,191.000000 
	C1.000000,128.682098 1.032483,66.864151 0.910399,5.046493 
	C0.903841,1.725481 1.432426,0.897193 4.951757,0.899669 
	C168.910721,1.014992 332.869781,1.018328 496.828735,0.886886 
	C500.651733,0.883821 501.080383,1.938875 501.078522,5.326762 
	C500.988708,169.119156 500.987213,332.911591 501.086395,496.703949 
	C501.088501,500.181335 500.532990,501.109467 496.798035,501.106628 
	C333.005707,500.983154 169.213257,500.982391 5.420922,501.105652 
	C1.494933,501.108612 0.910568,500.027283 0.914345,496.423004 
	C1.020857,394.782104 1.000000,293.141022 1.000000,191.000000 
z"
  />
<path
    fill="#010000"
    opacity="1.000000"
    stroke="none"
    d="
M139.002167,398.143890 
	C138.523697,398.058167 138.386017,398.168243 138.143692,398.359131 
	C137.882965,398.734192 137.726257,399.027588 137.083740,399.206543 
	C133.892792,397.015015 134.591766,393.964569 134.575394,391.262817 
	C134.465836,373.177582 134.447769,355.091553 134.473663,336.514282 
	C134.701813,299.597992 134.257187,263.171173 134.563568,226.747986 
	C134.772263,201.937805 135.630798,177.133255 135.313660,152.317093 
	C135.291321,150.569046 135.807922,148.654831 133.915771,146.818176 
	C131.598541,139.446075 132.321884,132.369949 133.012375,125.353607 
	C134.340363,111.859383 134.284485,98.309769 135.027344,84.317802 
	C135.300339,82.337746 135.447937,80.825073 135.567841,78.878387 
	C135.819382,77.644424 135.986298,76.829048 136.254333,75.636322 
	C138.267944,71.993469 140.552124,73.559082 142.700226,74.813393 
	C158.683014,84.145935 175.053558,92.819557 190.565811,102.952599 
	C191.130661,103.321571 191.813889,103.370079 192.833160,103.582970 
	C210.891006,114.612236 229.168381,124.564209 247.023727,135.239639 
	C272.258728,150.327225 297.581177,165.271088 322.943024,180.143951 
	C336.831635,188.288620 350.864319,196.206085 365.494904,203.764252 
	C366.119141,203.850388 366.371155,203.876175 366.986023,204.015656 
	C368.760681,204.920792 369.999207,206.048645 372.011810,206.485306 
	C384.197968,213.807114 395.309479,222.191772 408.222961,228.310654 
	C411.080139,230.659546 414.106842,232.203430 416.779419,234.824615 
	C417.086182,235.049347 417.005280,234.977280 416.967285,234.938690 
	C417.081879,235.098404 417.234528,235.296738 417.514099,235.848267 
	C419.426941,239.963989 416.087097,240.897018 414.045502,242.115036 
	C404.908356,247.566254 395.710358,252.919785 386.418365,258.106842 
	C379.744202,261.832550 373.387238,266.121429 366.139038,269.587036 
	C352.112946,278.335266 337.949951,286.110901 323.975708,294.205200 
	C298.422577,309.006409 272.929138,323.922333 247.060196,338.165009 
	C229.701553,347.722198 212.317215,357.242767 195.255356,367.304169 
	C188.307693,371.401245 180.715591,374.723969 174.614197,380.857391 
	C165.322174,384.671967 156.916794,389.262726 148.980591,395.339905 
	C145.269516,395.581543 142.883072,398.751495 139.002167,398.143890 
z"
  />
<path
    fill="#A1163B"
    opacity="1.000000"
    stroke="none"
    d="
M138.752090,398.323669 
	C141.357346,396.582977 144.053955,395.218658 147.082764,393.905548 
	C152.929306,391.793854 158.009171,388.738739 163.339615,386.201294 
	C193.050262,372.057953 223.535156,359.676270 253.689285,346.541290 
	C293.333435,329.272430 333.192169,312.503174 372.859589,295.289185 
	C379.768707,292.290955 380.288940,290.044495 376.300507,283.516144 
	C374.493073,280.557709 371.495453,278.373535 370.631409,274.419067 
	C370.527740,271.312744 372.682953,270.502655 374.556488,269.454742 
	C387.475464,262.229095 400.630096,255.439316 413.674744,248.448318 
	C429.357941,240.043243 444.959564,231.480133 460.796631,223.365768 
	C462.849213,222.314117 465.010193,220.253662 467.820129,222.656876 
	C463.100220,236.456818 458.212830,249.912476 453.130005,263.673279 
	C450.750977,266.728394 448.019135,268.655579 444.737488,269.977966 
	C430.408264,275.752075 416.569214,282.706360 401.589996,287.727814 
	C400.006195,287.239288 398.726776,285.549774 397.446899,288.142670 
	C396.523132,290.817200 394.412933,291.602966 392.427521,292.378448 
	C388.110107,294.064606 386.275360,297.251770 386.512909,301.722809 
	C387.355896,317.589294 380.321899,331.014923 373.378052,344.486145 
	C372.045807,347.070740 369.235352,348.593353 368.317383,351.927612 
	C367.656677,353.011017 366.982819,353.468597 365.718414,353.690857 
	C356.696960,356.100677 347.938690,357.804230 339.203125,359.596619 
	C314.611053,364.642456 290.141418,370.280121 265.038818,374.880280 
	C261.841492,374.898071 259.338409,376.143951 256.263885,376.743408 
	C223.494980,384.271332 190.919952,390.706451 158.407547,397.434448 
	C152.921051,398.569794 147.276245,398.609283 141.311966,399.379791 
	C140.222198,399.253998 139.532822,398.977051 138.752090,398.323669 
z"
  />
<path
    fill="#C48600"
    opacity="1.000000"
    stroke="none"
    d="
M417.050720,234.716690 
	C413.647430,234.843506 411.262970,232.464890 408.476227,230.560028 
	C361.642120,199.003220 317.701080,163.845367 272.447693,130.476730 
	C269.772156,128.503845 266.960999,126.718773 264.065674,124.450409 
	C262.227142,123.238312 260.977173,121.826538 259.066956,120.709641 
	C243.156738,108.751480 227.469940,97.080399 211.876984,85.284691 
	C209.389740,83.403152 206.497528,81.943817 204.643585,78.785118 
	C204.142319,77.715462 203.823975,76.985657 203.598755,75.784683 
	C203.463867,74.195580 203.507751,73.058052 204.687485,71.843781 
	C216.242950,63.165474 229.316940,60.512344 242.866562,59.606701 
	C248.467300,59.232346 254.127014,59.216564 260.128662,60.191055 
	C261.084900,60.062458 261.626923,60.016533 262.551758,60.104431 
	C270.348877,67.877197 277.570312,75.737053 284.697205,83.692711 
	C297.867004,98.393967 311.082642,113.052879 324.132965,127.861763 
	C331.260468,135.949707 338.574280,143.879562 345.900848,151.787018 
	C348.389313,154.472778 350.126862,157.676010 352.996521,160.427475 
	C353.490112,160.751617 353.678406,160.894897 354.087830,161.315948 
	C362.917206,170.992126 371.363251,180.536972 379.923950,189.978287 
	C389.284424,200.301636 398.442383,210.806259 407.842010,221.095734 
	C410.432037,223.930923 411.688721,227.807602 414.827911,230.722412 
	C415.739716,232.089813 416.377472,233.236923 417.050720,234.716690 
z"
  />
<path
    fill="#976700"
    opacity="1.000000"
    stroke="none"
    d="
M352.900299,162.526917 
	C348.706482,160.382492 346.764954,156.458282 344.035797,153.424530 
	C316.961548,123.328445 290.029938,93.104034 262.919006,62.615631 
	C263.554260,59.116371 265.956055,60.083954 268.017914,60.308399 
	C291.522125,62.866959 312.067566,72.403290 330.631531,86.721664 
	C336.594299,91.320747 341.917908,96.502739 346.843201,102.672668 
	C355.216309,117.840904 363.365051,132.722610 371.336548,147.698669 
	C385.962341,175.176331 400.483582,202.709641 415.075195,230.581238 
	C408.604156,228.019470 405.298553,221.731308 400.757202,216.858932 
	C386.303345,201.351593 372.332336,185.393494 358.223938,169.565765 
	C356.358765,167.473312 354.778412,165.126953 352.900299,162.526917 
z"
  />
<path
    fill="#009776"
    opacity="1.000000"
    stroke="none"
    d="
M56.816040,202.407776 
	C65.143234,187.118149 74.632233,173.025818 83.593460,158.610489 
	C100.473000,131.457489 117.493362,104.392036 134.698975,77.047638 
	C135.151199,76.973183 135.359634,77.141273 135.720581,77.681046 
	C135.176346,87.123596 132.084442,95.664162 129.340378,104.167038 
	C115.579041,146.808609 101.633583,189.391830 87.614830,231.950577 
	C81.256531,251.253372 75.089455,270.619934 68.529831,289.856079 
	C67.709785,292.260864 67.551987,295.261658 64.034592,296.375122 
	C60.717163,296.913208 60.011597,294.672821 59.080769,292.746948 
	C53.513630,281.228699 50.540386,268.913940 49.756912,256.300079 
	C48.987915,243.919327 48.920975,231.448349 51.295059,219.092010 
	C52.393894,213.372910 54.720333,208.188980 56.816040,202.407776 
z"
  />
<path
    fill="#7C112D"
    opacity="1.000000"
    stroke="none"
    d="
M263.533997,373.543915 
	C270.015472,370.826202 276.688782,370.198151 283.164642,368.795471 
	C308.985504,363.202698 334.853912,357.829132 360.709381,352.396545 
	C361.839996,352.158997 363.016388,352.139221 364.589844,352.015076 
	C367.700897,354.061371 365.781952,355.901215 364.586975,357.541992 
	C359.969788,363.881348 354.805023,369.776947 348.879120,374.909668 
	C335.006866,386.924988 319.355743,395.894928 301.941437,401.761322 
	C297.281494,403.331146 292.320587,403.143524 287.272095,404.541504 
	C268.639679,404.145203 250.338837,403.599792 232.041031,402.967010 
	C201.928421,401.925629 171.817749,400.827667 141.308929,399.642273 
	C146.361084,396.311249 152.661621,396.233276 158.595901,394.954681 
	C189.413498,388.314697 220.287216,381.935211 251.145355,375.483948 
	C252.438980,375.213470 253.772079,375.131836 255.503464,374.946655 
	C258.705688,376.656586 261.248505,376.840790 263.533997,373.543915 
z"
  />
<path
    fill="#00745B"
    opacity="1.000000"
    stroke="none"
    d="
M56.597771,202.133636 
	C58.091324,205.596619 56.130177,208.793793 55.407429,212.124191 
	C49.707031,238.391190 50.143593,264.240479 60.364880,289.471222 
	C61.107849,291.305237 61.644711,293.268768 63.404434,294.913086 
	C64.970055,295.459961 65.629456,296.355011 65.799866,298.068726 
	C63.526505,302.466644 63.164429,307.030457 61.764721,311.270020 
	C57.537338,324.074249 53.261990,336.862549 48.953659,349.639557 
	C48.279720,351.638214 47.882839,353.903900 45.279758,355.094788 
	C31.851124,341.174835 20.351517,326.403717 16.666058,306.794250 
	C13.037850,287.489349 15.560626,269.204376 25.287474,252.350296 
	C35.093849,235.358414 45.923241,218.956909 56.597771,202.133636 
z"
  />
<path
    fill="#744F00"
    opacity="1.000000"
    stroke="none"
    d="
M347.098572,102.558640 
	C342.923645,101.742340 340.287598,98.307495 337.266113,95.590919 
	C316.223328,76.671555 292.022614,64.884209 263.205750,62.298637 
	C262.417786,62.182026 262.055603,62.048710 261.417511,61.827225 
	C255.170120,59.746197 252.093781,54.490997 248.235779,50.162785 
	C239.875565,40.783600 231.094040,31.780430 223.107895,22.069067 
	C222.000732,20.722742 220.353027,19.440538 221.749451,16.972864 
	C237.519501,12.914120 253.155807,10.450995 269.181793,14.383009 
	C291.305328,19.811056 308.636200,31.950741 319.994507,51.655827 
	C329.533234,68.204155 338.069519,85.330307 347.098572,102.558640 
z"
  />
<path
    fill="#5F0D23"
    opacity="1.000000"
    stroke="none"
    d="
M287.401642,404.806519 
	C288.382874,402.524597 290.838440,402.352844 293.048889,401.744995 
	C316.146393,395.393616 336.477905,384.186829 353.336731,367.058105 
	C357.633881,362.692108 361.772003,358.093964 364.902435,352.338196 
	C365.469971,351.716034 365.931671,351.419952 366.634064,350.992279 
	C369.777893,348.458618 373.151886,347.219788 376.824219,346.468079 
	C390.859436,343.595032 404.858368,340.545959 418.889862,337.654663 
	C421.043488,337.210846 423.396362,335.927734 425.595703,338.578308 
	C420.321503,356.932343 413.113678,373.889923 398.457275,386.682434 
	C379.490326,403.237305 357.182434,408.388123 332.660522,406.860168 
	C317.745270,405.930786 302.797363,405.524445 287.401642,404.806519 
z"
  />
<path
    fill="#7C112D"
    opacity="1.000000"
    stroke="none"
    d="
M425.972351,338.611389 
	C407.431305,342.747620 389.040833,346.551239 370.648621,350.346283 
	C369.673615,350.547485 368.683685,350.676605 367.287720,350.849976 
	C371.540588,342.474060 376.219940,334.125000 379.666351,325.097382 
	C382.731079,317.069458 384.727966,308.933807 383.949097,300.374695 
	C383.461823,295.020447 385.410156,291.876404 390.488281,290.371033 
	C392.371094,289.812836 394.280853,289.117615 395.867157,287.265137 
	C397.285431,285.646210 398.778259,285.362610 400.808411,285.835693 
	C418.178375,278.638794 435.206421,271.400909 452.584534,264.070679 
	C447.211243,280.043243 441.521606,296.120178 435.751099,312.168091 
	C432.612518,320.896545 429.336548,329.575623 425.972351,338.611389 
z"
  />
<path
    fill="#976700"
    opacity="1.000000"
    stroke="none"
    d="
M221.472183,16.671793 
	C230.529739,27.818604 240.672119,37.657051 249.845596,48.349506 
	C253.511627,52.622589 257.195099,56.880714 261.006104,61.442352 
	C251.031387,62.203613 240.856873,61.512020 230.834320,63.549061 
	C222.280914,65.287498 214.207825,68.224228 206.455688,72.973801 
	C204.766541,72.982529 203.703583,72.332550 202.709503,71.395973 
	C199.989716,68.833488 196.853226,67.959572 192.897369,69.339737 
	C190.143585,68.650101 187.950333,67.626389 185.914474,66.103127 
	C173.064255,56.488503 160.205566,46.884045 147.446671,37.150024 
	C145.615051,35.752655 142.168533,34.850208 143.772522,30.800041 
	C169.620331,25.871071 195.330566,21.285349 221.472183,16.671793 
z"
  />
<path
    fill="#009776"
    opacity="1.000000"
    stroke="none"
    d="
M45.036964,355.478607 
	C48.685654,340.875122 53.974293,327.045868 58.522327,312.978607 
	C59.994087,308.426422 60.538918,303.517761 63.617374,299.208557 
	C67.722511,297.349182 68.426483,300.824463 69.606956,302.843567 
	C74.499626,311.212067 80.220039,318.883331 86.839813,325.994415 
	C92.309952,331.870575 99.401428,335.146851 106.140732,339.685669 
	C106.389252,340.300781 106.436684,340.570923 106.547073,341.257690 
	C107.196571,350.870300 105.088913,359.827789 104.119911,368.879852 
	C102.706070,382.087524 101.057373,395.270996 99.487503,408.462280 
	C99.171684,411.116028 98.986572,413.776215 96.413818,415.885223 
	C79.053856,395.940674 62.120358,375.857056 45.036964,355.478607 
z"
  />
<path
    fill="#C38500"
    opacity="1.000000"
    stroke="none"
    d="
M143.469727,30.470104 
	C144.920547,32.720253 147.075745,33.814259 148.903214,35.188614 
	C163.348618,46.052345 177.836365,56.859795 192.579788,67.878540 
	C193.051849,68.188316 193.255188,68.304100 193.623993,68.728607 
	C192.095428,74.495399 195.546890,78.055489 198.634247,82.147476 
	C198.000748,88.028534 196.130844,93.211311 193.453934,98.487564 
	C190.371277,100.741631 187.950562,99.617142 185.382385,98.064644 
	C159.511063,82.425110 133.666519,66.741653 107.868820,50.981010 
	C104.041550,48.642807 100.114235,46.466785 96.383011,43.974045 
	C94.905838,42.987183 93.003387,42.198631 93.924484,39.472275 
	C110.432167,36.266785 126.730751,33.375103 143.469727,30.470104 
z"
  />
<path
    fill="#00C398"
    opacity="1.000000"
    stroke="none"
    d="
M96.125954,416.328644 
	C98.962723,391.280609 101.938087,366.536957 104.972412,341.379059 
	C106.039963,339.801056 107.160294,338.972626 108.855804,339.180908 
	C114.309700,339.850983 119.708618,339.402039 125.055397,338.215088 
	C126.600349,337.872131 127.973427,338.304810 129.659393,339.344177 
	C132.750397,346.229980 131.251892,353.044861 131.134201,359.763611 
	C131.096756,361.901672 130.502472,364.043762 130.565048,366.200317 
	C131.104294,384.788544 129.110245,403.326294 129.485825,421.910431 
	C129.650284,430.047516 128.094269,438.106384 128.356964,446.255219 
	C128.409363,447.880707 128.264313,449.606506 126.425827,451.053345 
	C115.468559,440.245331 106.247971,428.111847 96.125954,416.328644 
z"
  />
<path
    fill="#570C20"
    opacity="1.000000"
    stroke="none"
    d="
M468.194580,222.711121 
	C461.076202,225.087509 455.161011,229.192764 448.880280,232.533279 
	C423.365112,246.104019 397.916321,259.799500 372.216919,273.704987 
	C371.683228,274.468201 371.243195,274.799744 370.244019,274.965546 
	C367.512482,273.348328 363.125488,273.514557 364.741211,268.427216 
	C375.471039,260.941681 386.844910,255.340164 397.632935,248.754501 
	C404.141602,244.781219 411.260803,241.790771 417.360535,236.401367 
	C420.119141,236.153931 422.027771,234.688797 424.027313,233.538925 
	C438.456909,225.240875 452.862854,216.901810 467.285187,208.591080 
	C469.273682,207.445206 471.310913,206.383911 474.408234,204.692108 
	C472.953125,211.597214 470.334869,216.904633 468.194580,222.711121 
z"
  />
<path
    fill="#006951"
    opacity="1.000000"
    stroke="none"
    d="
M126.027390,451.596130 
	C126.971832,416.791443 127.963402,382.315643 128.937775,347.839355 
	C129.003647,345.508759 128.940048,343.174530 128.877869,340.370361 
	C128.720505,339.652161 128.621964,339.405548 128.619080,338.771698 
	C130.846649,336.559174 132.476929,333.535553 136.366379,335.596069 
	C136.713715,354.375671 136.800293,372.849091 136.892380,391.322540 
	C136.903992,393.652832 136.944565,395.983002 137.029633,399.002441 
	C137.087540,420.714355 137.087540,441.737030 137.087540,464.343079 
	C132.041702,459.968536 129.179489,455.829803 126.027390,451.596130 
z"
  />
<path
    fill="#6A4800"
    opacity="1.000000"
    stroke="none"
    d="
M93.717422,39.130058 
	C100.941544,44.548157 108.680595,48.474125 116.041145,52.983795 
	C139.745361,67.506889 163.544174,81.875572 187.314560,96.290558 
	C188.447876,96.977837 189.658020,97.538399 191.168243,98.221863 
	C192.147568,98.384064 192.651596,98.703026 193.178574,99.678085 
	C193.505157,101.896095 194.628464,103.774750 192.423615,105.619995 
	C173.879517,95.522232 155.721146,85.159782 136.994812,74.478821 
	C118.217430,63.561653 100.008003,52.962997 81.169106,41.997963 
	C85.527039,39.865585 89.504944,39.845402 93.717422,39.130058 
z"
  />
<path
    fill="#008366"
    opacity="1.000000"
    stroke="none"
    d="
M136.274689,74.428146 
	C136.426865,74.160309 136.719299,74.411316 136.797302,74.453362 
	C136.904114,75.407951 136.932907,76.320503 136.855789,77.671646 
	C136.401993,78.421341 135.997543,78.540680 135.272034,78.263779 
	C134.995193,77.850349 134.982803,77.641396 134.956573,77.118767 
	C135.336014,76.102058 135.729279,75.399017 136.274689,74.428146 
z"
  />
<path
    fill="#7C112D"
    opacity="1.000000"
    stroke="none"
    d="
M137.302109,399.532654 
	C137.087540,399.691650 137.071167,399.485168 137.080078,399.382446 
	C137.260559,399.154846 137.432159,399.029938 137.821716,398.672882 
	C137.865341,398.751740 137.691010,399.062683 137.302109,399.532654 
z"
  />
<path
    fill="#C48600"
    opacity="1.000000"
    stroke="none"
    d="
M417.684082,235.788361 
	C417.616486,236.061569 417.481445,235.960693 417.427948,236.024002 
	C417.204407,235.925400 417.034332,235.763504 416.896729,235.250839 
	C417.203400,235.105118 417.477539,235.310135 417.684082,235.788361 
z"
  />
<path
    fill="#00C499"
    opacity="1.000000"
    stroke="none"
    d="
M134.962067,78.438713 
	C135.394363,78.065010 135.781128,78.070724 136.458893,78.093338 
	C136.734268,79.531403 136.718658,80.952553 136.532852,82.765579 
	C134.599609,91.940788 134.767319,100.892845 134.134201,109.768768 
	C132.766907,128.937256 130.380203,147.991776 128.124298,167.061890 
	C124.546318,197.307907 120.960548,227.553009 117.374260,257.797974 
	C114.395493,282.919403 111.458107,308.046417 108.318062,333.148376 
	C108.018456,335.543488 107.921425,338.199951 105.146523,339.989014 
	C93.602486,337.355042 86.290199,329.403320 79.147583,321.248016 
	C73.319626,314.593750 69.260246,306.733856 64.142052,299.192627 
	C63.824455,297.944183 63.777439,296.914337 63.699417,295.498871 
	C69.594505,280.612152 73.908287,265.556122 78.830208,250.713943 
	C90.569901,215.312607 102.095657,179.840195 113.664040,144.382217 
	C120.789848,122.541107 127.835114,100.673714 134.962067,78.438713 
z"
  />
<path
    fill="#FDAD00"
    opacity="1.000000"
    stroke="none"
    d="
M192.385834,99.930557 
	C192.138794,99.256088 191.963928,98.975342 191.628418,98.501480 
	C193.318726,93.159073 195.133347,88.032387 197.026978,82.554367 
	C197.202499,81.130188 197.443527,80.120338 198.656921,79.175423 
	C201.214752,78.960213 202.882812,76.899269 205.537994,77.418053 
	C222.529617,90.113205 239.199142,102.638954 255.852341,115.186378 
	C257.166077,116.176216 258.366272,117.316757 259.781067,118.675339 
	C259.891052,122.188774 260.819244,124.122246 264.775116,122.222679 
	C311.002106,156.344833 356.961334,190.662003 402.897675,225.009827 
	C404.745789,226.391708 406.377106,228.063522 408.284302,229.920135 
	C399.856049,226.461899 392.200409,221.002243 384.029602,216.455917 
	C379.860443,214.136185 375.799805,211.621445 371.428772,208.983917 
	C369.685638,207.861069 368.154236,207.044876 366.368042,206.105362 
	C366.191132,205.831573 366.148010,205.851517 366.149109,205.827789 
	C333.211578,186.406921 300.388824,166.814041 267.464050,147.393082 
	C244.388733,133.781937 221.368240,120.074104 198.561340,106.013214 
	C196.140182,104.520523 193.693726,103.080360 192.385834,99.930557 
z"
  />
<path
    fill="#00FDC6"
    opacity="1.000000"
    stroke="none"
    d="
M104.792252,340.350403 
	C108.462578,309.436737 112.244629,278.735229 115.938431,248.023132 
	C120.228050,212.357132 124.444756,176.682358 128.684113,141.010330 
	C130.784164,123.339386 132.864044,105.666046 134.953171,87.993805 
	C135.126144,86.530518 134.872345,84.959045 136.195679,83.451027 
	C136.165726,103.747337 135.968765,124.337219 135.735931,145.384064 
	C135.457977,168.496307 134.919205,191.149826 134.812119,213.803940 
	C134.701996,237.105484 134.039337,260.403900 133.154419,283.665833 
	C132.553497,299.462128 133.566757,315.330597 131.506821,331.077362 
	C131.183655,333.547821 131.312164,336.076721 129.485718,338.647766 
	C129.208023,339.067657 128.997498,339.475708 128.908264,339.687225 
	C121.252007,341.966827 113.631836,342.981567 105.447388,341.010712 
	C105.031380,340.964844 104.864975,340.557861 104.792252,340.350403 
z"
  />
<path
    fill="#C38500"
    opacity="1.000000"
    stroke="none"
    d="
M326.096680,259.727600 
	C325.882050,259.826843 325.508789,259.987823 325.329742,260.083954 
	C324.836182,260.259674 324.564392,260.414337 324.127502,260.757446 
	C323.919647,260.870789 323.897858,260.889557 323.883698,260.892090 
	C323.744263,261.097687 323.619019,261.300751 323.135864,261.504211 
	C322.777985,261.504639 322.327515,261.688934 322.109344,261.796814 
	C321.759338,262.103973 321.627533,262.303314 321.137543,262.515747 
	C320.779327,262.528900 320.336334,262.689575 320.128387,262.800354 
	C309.044525,268.475098 298.320801,274.338165 287.292267,279.600250 
	C285.433167,280.487274 283.440735,281.840088 281.023407,279.698120 
	C279.238098,277.180969 279.961487,274.905182 280.598938,272.692657 
	C284.027283,260.792755 285.073425,248.645386 284.396790,235.907440 
	C283.820557,234.392273 284.224335,233.314819 284.422455,231.838196 
	C284.478485,231.190628 284.500031,230.935455 284.574219,230.307190 
	C286.660400,227.844742 289.027313,226.080627 290.889587,223.837982 
	C294.031067,220.054855 295.457245,215.899185 292.901917,210.776627 
	C293.159943,206.743454 291.716339,204.441269 288.398895,202.460220 
	C282.996552,199.234177 277.685944,195.882370 271.626404,193.061584 
	C270.062927,192.494324 269.670929,190.894943 267.927429,190.594788 
	C267.390686,190.267776 267.179993,190.128464 266.696045,189.717377 
	C266.292694,189.219727 266.162567,188.993835 265.944275,188.384979 
	C265.768036,185.569946 264.067047,184.271866 262.437592,182.799149 
	C260.582977,181.122971 257.498627,179.853394 259.734863,176.143524 
	C262.333801,176.209732 263.965820,177.736832 265.808655,178.797211 
	C286.664673,190.797791 307.425354,202.966293 328.372986,214.804306 
	C337.315857,219.858154 343.200867,226.627243 342.906982,237.291855 
	C342.620941,247.671783 336.867188,254.518784 327.420197,258.972595 
	C326.828156,259.267212 326.563568,259.438232 326.096680,259.727600 
z"
  />
<path
    fill="#CF1D4C"
    opacity="1.000000"
    stroke="none"
    d="
M369.676514,274.164520 
	C370.482086,274.151245 370.913025,274.095764 371.667358,274.000610 
	C375.041138,277.892334 378.590546,281.452637 380.766510,286.029724 
	C383.908966,292.639679 383.608459,293.528809 376.854523,296.426849 
	C353.764771,306.334503 330.666595,316.222473 307.576874,326.130096 
	C256.352173,348.110107 205.132950,370.102814 153.898331,392.059662 
	C152.082733,392.837738 150.127548,393.290070 147.826202,393.925476 
	C155.299683,388.303131 164.169022,384.345123 172.791870,379.261108 
	C194.593002,367.266815 216.057571,355.391907 237.442139,343.376007 
	C276.515961,321.420563 316.298767,300.780182 355.710266,279.451691 
	C359.967407,277.147858 363.998016,273.906311 369.676514,274.164520 
z"
  />
<path
    fill="#71102A"
    opacity="1.000000"
    stroke="none"
    d="
M369.871582,273.912354 
	C360.060120,280.518982 349.403809,285.622284 339.011322,291.198456 
	C285.655304,319.826935 232.250916,348.365265 178.852005,376.913757 
	C177.249893,377.770264 175.521896,378.391266 173.483307,379.118195 
	C173.707504,377.532257 175.263779,377.092590 176.519394,376.368042 
	C238.223770,340.761108 299.942047,305.178223 361.663696,269.601257 
	C362.525421,269.104523 363.449951,268.716858 364.682861,268.189392 
	C365.586334,270.778931 368.487183,271.480438 369.871582,273.912354 
z"
  />
<path
    fill="#008E6E"
    opacity="1.000000"
    stroke="none"
    d="
M129.537018,338.982544 
	C129.912659,311.939240 130.588669,284.810059 131.329224,257.682648 
	C132.233429,224.561691 133.170807,191.441620 134.154404,158.322968 
	C134.272293,154.353012 133.834778,150.321518 135.376953,146.134308 
	C137.736908,146.881973 136.812012,148.788925 136.812317,150.263260 
	C136.824554,211.836380 136.772079,273.409515 136.676544,335.442444 
	C134.372299,336.900635 132.119171,337.899017 129.537018,338.982544 
z"
  />
<path
    fill="#D42648"
    opacity="1.000000"
    stroke="none"
    d="
M163.469727,279.344849 
	C163.150497,273.084167 162.983124,267.256561 162.978760,261.428864 
	C162.953552,227.765198 162.981064,194.101486 162.945114,160.437851 
	C162.941513,157.063690 163.211838,153.791641 164.878174,150.374863 
	C167.672211,147.650650 170.422577,145.836380 174.503036,147.935333 
	C175.969086,149.836166 175.800125,151.373077 174.972824,152.989243 
	C172.699295,157.430725 172.462936,162.216934 172.468475,167.100601 
	C172.509064,202.916183 172.503098,238.731873 172.479294,274.547516 
	C172.477188,277.705872 172.676712,280.883453 171.759857,284.461365 
	C167.850693,287.034668 165.979614,286.652740 164.784286,283.143524 
	C164.412201,282.051239 163.779343,280.983276 163.469727,279.344849 
z"
  />
<path
    fill="#8A5E00"
    opacity="1.000000"
    stroke="none"
    d="
M192.223755,100.011902 
	C219.345718,115.924660 246.427307,132.268066 273.478912,148.660950 
	C302.811127,166.435837 332.117981,184.252548 361.424530,202.069687 
	C362.979553,203.015076 364.429138,204.133972 366.039001,205.488068 
	C364.655762,206.171036 363.608643,205.162308 362.495880,204.519272 
	C305.854523,171.787415 249.226059,139.033218 192.317062,106.083054 
	C192.081985,104.077911 192.126083,102.271126 192.223755,100.011902 
z"
  />
<path
    fill="#FAA901"
    opacity="1.000000"
    stroke="none"
    d="
M260.063843,175.957718 
	C261.461151,180.583664 266.691742,182.559540 267.972992,187.644440 
	C266.130096,190.253296 264.408417,188.635223 262.767639,187.680725 
	C242.217148,175.725906 221.659485,163.783798 200.997513,152.022034 
	C199.307800,151.060165 197.511475,150.079681 198.856308,147.222305 
	C202.564606,144.758835 205.622223,146.302139 208.840683,147.552139 
	C210.613541,148.240677 212.387451,149.016800 214.686981,149.709183 
	C229.856461,157.674347 244.106537,166.273224 258.704224,174.947937 
	C259.156036,175.288773 259.343414,175.408493 259.798096,175.727722 
	C260.065430,175.927216 260.040314,175.972244 260.063843,175.957718 
z"
  />
<path
    fill="#774F01"
    opacity="1.000000"
    stroke="none"
    d="
M278.211243,287.389343 
	C259.509155,298.398010 241.076828,309.074524 222.310532,319.846313 
	C218.637741,320.229614 215.240891,320.905334 212.068665,318.143280 
	C210.313019,313.375610 213.758011,312.341766 216.567474,311.052917 
	C235.395599,302.415222 254.263992,293.865631 272.679016,284.357727 
	C274.377258,283.480927 276.083038,282.079987 278.533020,283.517242 
	C279.439178,284.983734 279.051025,286.029999 278.211243,287.389343 
z"
  />
<path
    fill="#5C3E01"
    opacity="1.000000"
    stroke="none"
    d="
M212.297134,316.153748 
	C215.521942,317.447632 218.447708,318.493500 221.675018,319.740540 
	C213.467911,325.646057 204.608093,330.808350 195.436203,335.299652 
	C189.103073,338.400940 182.278854,337.814819 175.521988,334.612671 
	C175.256073,334.183258 175.273239,333.933319 175.413956,333.328308 
	C176.275238,331.379913 177.602402,330.426056 179.121674,329.689728 
	C188.831116,324.984192 198.136841,319.430420 208.707733,315.662537 
	C210.097488,315.237061 211.092834,315.202240 212.297134,316.153748 
z"
  />
<path
    fill="#A0163A"
    opacity="1.000000"
    stroke="none"
    d="
M176.449615,333.463654 
	C176.230423,333.958984 176.032303,334.055206 175.536545,334.292328 
	C166.423035,329.407013 162.690155,321.722107 162.901825,311.699493 
	C163.126038,301.084076 163.003967,290.461334 163.137848,279.376801 
	C165.968475,280.087799 166.456253,283.402008 169.199371,284.950012 
	C170.529282,285.230927 171.272278,285.809845 171.931839,287.173157 
	C171.477417,293.484100 173.147476,299.306305 172.257080,305.592285 
	C170.459137,313.496063 171.661987,320.630005 174.660980,327.563599 
	C175.429428,329.340271 176.808228,330.922058 176.449615,333.463654 
z"
  />
<path
    fill="#C48302"
    opacity="1.000000"
    stroke="none"
    d="
M214.949615,149.617981 
	C209.960297,149.856750 205.111191,147.369690 199.203857,148.204834 
	C198.301147,148.913071 197.968597,149.238480 197.220398,149.584747 
	C192.831909,148.300034 188.836609,148.435806 184.537735,150.237915 
	C181.359940,149.297379 178.028305,150.965057 175.156235,148.430206 
	C173.948898,145.671005 175.509506,144.413467 177.025253,143.071152 
	C183.042618,137.742264 190.017502,138.044006 197.615601,139.823456 
	C198.017914,140.083069 197.969116,140.069382 197.946930,140.057129 
	C198.248749,140.261673 198.598038,140.422104 199.224503,140.668732 
	C204.571884,143.655548 209.671524,146.490616 214.949615,149.617981 
z"
  />
<path
    fill="#674302"
    opacity="1.000000"
    stroke="none"
    d="
M278.251526,287.593811 
	C277.946106,286.698151 277.950775,285.674774 277.941956,284.267700 
	C277.505646,283.466736 277.165833,282.990204 276.839874,282.015686 
	C277.187134,278.949982 278.789246,278.132080 281.650269,278.845093 
	C293.268280,275.535889 303.376312,269.481384 314.140228,264.915527 
	C315.804382,264.209625 317.493103,263.561493 319.545441,262.898895 
	C317.855072,265.697571 314.560547,266.680481 311.754913,268.328278 
	C300.742401,274.795959 289.634247,281.100769 278.251526,287.593811 
z"
  />
<path
    fill="#9D1838"
    opacity="1.000000"
    stroke="none"
    d="
M197.775543,139.812729 
	C189.765717,139.561844 182.066406,140.761017 175.870941,147.442535 
	C175.872818,148.580246 175.380676,148.952011 174.401672,148.977539 
	C171.376862,149.160095 168.628387,149.537903 165.480042,149.980621 
	C170.933441,137.470444 184.084579,133.214203 197.775543,139.812729 
z"
  />
<path
    fill="#8A5E00"
    opacity="1.000000"
    stroke="none"
    d="
M366.255676,206.165558 
	C368.210480,205.702423 369.538452,206.976059 371.039551,208.465530 
	C369.117371,208.941223 367.826233,207.491302 366.255676,206.165558 
z"
  />
<path
    fill="#9D1838"
    opacity="1.000000"
    stroke="none"
    d="
M199.346436,140.629349 
	C199.038101,140.697418 198.603943,140.574371 198.047272,140.248108 
	C198.356705,140.176010 198.788651,140.307114 199.346436,140.629349 
z"
  />
<path
    fill="#674302"
    opacity="1.000000"
    stroke="none"
    d="
M323.010406,261.520447 
	C322.886597,261.193115 323.098877,260.989838 323.642181,260.894714 
	C323.780823,261.225922 323.571930,261.439789 323.010406,261.520447 
z"
  />
<path
    fill="#674302"
    opacity="1.000000"
    stroke="none"
    d="
M321.024109,262.570740 
	C320.897369,262.219452 321.115295,262.018127 321.662170,261.914764 
	C321.840820,262.278717 321.633392,262.514679 321.024109,262.570740 
z"
  />
<path
    fill="#674302"
    opacity="1.000000"
    stroke="none"
    d="
M324.175079,260.865356 
	C324.072418,260.551910 324.317352,260.339081 324.902588,260.206177 
	C324.910645,260.406708 324.670593,260.633301 324.175079,260.865356 
z"
  />
<path
    fill="#674302"
    opacity="1.000000"
    stroke="none"
    d="
M326.139862,259.826172 
	C326.045258,259.520935 326.290222,259.309875 326.860992,259.154480 
	C326.869293,259.351990 326.633484,259.588745 326.139862,259.826172 
z"
  />
<path
    fill="#C38500"
    opacity="1.000000"
    stroke="none"
    d="
M259.989777,175.680481 
	C259.725525,175.944427 259.442627,175.825760 259.092712,175.370117 
	C259.283783,175.257278 259.598969,175.345505 259.989777,175.680481 
z"
  />
<path
    fill="#570C20"
    opacity="1.000000"
    stroke="none"
    d="
M263.407104,373.256104 
	C263.835419,373.812164 263.914001,374.308228 263.923248,374.805573 
	C263.969940,377.312927 264.337341,380.221283 260.896362,380.663757 
	C257.449097,381.107056 256.317383,378.673309 255.968094,375.318420 
	C258.023682,373.267853 260.425171,372.825226 263.407104,373.256104 
z"
  />
<path
    fill="#6D0F28"
    opacity="1.000000"
    stroke="none"
    d="
M401.077423,285.526367 
	C399.986023,287.418304 398.547913,288.051636 396.376465,287.109436 
	C395.161194,285.167572 394.797577,283.277863 397.151764,282.447113 
	C399.374634,281.662750 400.540710,283.096771 401.077423,285.526367 
z"
  />
<path
    fill="#6A4800"
    opacity="1.000000"
    stroke="none"
    d="
M192.938324,69.379227 
	C192.861450,69.001022 192.873138,68.536476 192.860809,68.304504 
	C199.393951,64.869278 202.783371,65.995483 206.012253,72.752655 
	C205.819748,73.879578 205.506607,74.660240 205.171036,75.761200 
	C204.855637,76.531776 204.453796,76.839905 203.566940,77.102463 
	C198.687851,76.238579 195.155029,73.950333 192.938324,69.379227 
z"
  />
<path
    fill="#AE7700"
    opacity="1.000000"
    stroke="none"
    d="
M264.806854,121.780518 
	C264.588135,123.238686 264.412933,124.702019 263.612732,125.621330 
	C261.825592,127.674469 259.406769,127.897011 257.561432,125.905243 
	C254.925125,123.059731 256.452454,120.848518 259.616882,119.071991 
	C261.915833,119.046944 263.410522,119.989075 264.806854,121.780518 
z"
  />
<path
    fill="#895D00"
    opacity="1.000000"
    stroke="none"
    d="
M280.460327,102.315002 
	C277.332611,99.999290 277.033691,97.463196 279.725128,95.201378 
	C281.728210,93.518051 283.837067,94.404823 285.175018,96.467125 
	C286.916626,99.151588 285.017487,101.676773 280.460327,102.315002 
z"
  />
<path
    fill="#B47B00"
    opacity="1.000000"
    stroke="none"
    d="
M202.577332,76.070053 
	C203.479156,76.020523 203.956055,76.028778 204.790771,76.059265 
	C205.345642,76.451286 205.542679,76.821083 205.801971,77.386406 
	C203.779800,78.161713 202.959320,80.709862 200.294601,80.914864 
	C197.799011,77.972847 199.527725,76.842850 202.577332,76.070053 
z"
  />
<path
    fill="#6F4C00"
    opacity="1.000000"
    stroke="none"
    d="
M352.763733,162.181213 
	C353.090851,161.288559 353.024170,160.083420 354.350220,159.983444 
	C354.561768,159.967514 354.982574,160.339661 355.001495,160.558731 
	C355.096497,161.658585 354.200958,161.834442 353.132629,162.178314 
	C352.844116,162.265350 352.793030,162.206772 352.763733,162.181213 
z"
  />
<path
    fill="#006B53"
    opacity="1.000000"
    stroke="none"
    d="
M67.779411,215.596466 
	C70.063950,214.822342 71.727661,215.077316 72.519783,217.236557 
	C72.969398,218.462204 72.501389,219.565781 71.472313,220.267593 
	C70.114944,221.193344 68.595596,221.207489 67.376335,220.079361 
	C65.897293,218.710876 66.061218,217.188721 67.779411,215.596466 
z"
  />
<path
    fill="#570C20"
    opacity="1.000000"
    stroke="none"
    d="
M343.836670,364.174774 
	C345.233978,366.447723 345.128510,368.281097 342.975525,369.446808 
	C341.577698,370.203674 340.065796,369.958923 338.962341,368.689331 
	C338.015961,367.600403 337.866943,366.231110 338.555023,365.019989 
	C339.761932,362.895660 341.567627,362.769287 343.836670,364.174774 
z"
  />
<path
    fill="#420918"
    opacity="1.000000"
    stroke="none"
    d="
M401.871155,366.286804 
	C396.809601,364.401154 394.677856,360.964447 395.348267,356.050781 
	C395.926056,351.815765 398.497742,349.136841 402.755920,348.390289 
	C406.266693,347.774719 409.437469,348.621124 411.593079,351.639008 
	C413.733734,354.635956 414.864532,357.967407 412.598633,361.375885 
	C410.180939,365.012726 407.132751,367.715332 401.871155,366.286804 
z"
  />
<path
    fill="#6A4800"
    opacity="1.000000"
    stroke="none"
    d="
M204.337524,33.356018 
	C201.728790,35.682251 199.735229,34.994026 198.642319,32.342640 
	C197.890076,30.517696 199.086639,28.856838 200.930771,28.662405 
	C203.979660,28.340958 205.070282,30.154522 204.337524,33.356018 
z"
  />
<path
    fill="#006851"
    opacity="1.000000"
    stroke="none"
    d="
M79.246658,356.266449 
	C77.437164,360.752686 74.461624,363.145477 69.907593,362.341034 
	C66.225449,361.690521 63.644432,359.379089 63.079411,355.444275 
	C62.378223,350.561096 65.649025,346.545319 70.402542,346.070496 
	C75.138550,345.597412 80.694229,350.271576 79.246658,356.266449 
z"
  />
<path
    fill="#875C00"
    opacity="1.000000"
    stroke="none"
    d="
M202.758636,75.785347 
	C202.043243,77.435104 201.084198,78.857941 200.034271,80.588806 
	C199.193329,81.260185 198.443268,81.623528 197.399597,82.094963 
	C190.219620,78.194397 189.103821,75.199379 192.601181,69.206818 
	C196.682861,70.298279 199.382721,73.246628 202.758636,75.785347 
z"
  />
<path
    fill="#00886A"
    opacity="1.000000"
    stroke="none"
    d="
M109.487915,274.636719 
	C109.521835,281.027466 106.084106,284.597076 100.983238,283.811981 
	C97.516762,283.278412 95.186134,281.280487 94.590675,277.758331 
	C94.004143,274.288849 95.314880,271.453156 98.483124,269.881073 
	C101.526749,268.370819 104.655266,268.459442 107.239861,270.970673 
	C108.156326,271.861084 108.677551,273.158295 109.487915,274.636719 
z"
  />
<path
    fill="#8E6100"
    opacity="1.000000"
    stroke="none"
    d="
M286.237488,229.790253 
	C286.004272,230.041428 286.002411,230.539413 286.004822,230.788391 
	C281.767517,236.261414 275.397095,238.330795 269.935974,241.698090 
	C259.033569,248.420441 247.686249,254.402328 236.440948,261.335876 
	C235.935394,261.765411 235.737106,261.937164 235.230591,262.335907 
	C234.415909,263.203339 233.524796,263.173431 232.577972,263.764893 
	C230.814178,264.324280 229.634430,265.306122 227.752045,265.608643 
	C225.926239,265.404205 224.692093,264.514923 223.104874,264.733917 
	C207.590332,266.874725 197.004166,258.580048 188.144867,247.506149 
	C181.839783,239.624924 177.633499,230.504349 176.664246,220.300156 
	C176.343552,216.923965 172.966293,215.395477 172.742310,211.740799 
	C172.386475,195.152023 172.418304,179.004349 172.709137,162.410309 
	C176.131500,151.720734 190.135269,146.086456 199.643951,151.311142 
	C212.178177,158.198227 224.456558,165.537842 236.855789,172.663818 
	C246.878220,178.423813 256.761536,184.428024 266.945587,189.905792 
	C268.264862,190.615402 269.439240,191.797699 271.503204,191.046539 
	C277.570160,194.084930 283.319366,197.305069 289.013000,200.620544 
	C292.415894,202.602112 294.776245,205.482132 295.890198,209.682755 
	C294.001251,212.097168 292.427673,211.088150 290.865936,209.509109 
	C288.259979,206.874252 284.994904,205.262039 281.007782,203.051392 
	C283.221832,209.720322 285.780548,215.430496 286.973083,221.532730 
	C287.495972,224.208420 288.635864,226.999863 286.237488,229.790253 
z"
  />
<path
    fill="#FEAE00"
    opacity="1.000000"
    stroke="none"
    d="
M175.847595,160.770477 
	C174.459885,170.342087 175.371201,179.602844 175.171463,188.838715 
	C175.010757,196.270050 175.098419,203.706757 175.157166,211.608337 
	C176.627731,218.518570 177.417053,225.020432 177.508621,231.625015 
	C177.704758,245.772995 176.958008,259.930603 178.047485,274.509399 
	C178.579163,276.221802 178.637863,277.479187 178.508270,278.847748 
	C178.018066,284.023682 180.604950,286.891785 185.791962,287.145081 
	C191.327820,287.415436 195.565369,284.381470 200.184433,281.920166 
	C211.334610,275.978638 221.763062,268.748260 233.339996,263.560364 
	C235.666016,262.518066 237.648880,260.571045 240.115829,258.797943 
	C252.958405,251.526199 265.485687,244.541824 277.726135,237.050797 
	C279.910522,235.714005 282.125885,233.426544 285.666382,234.567902 
	C288.587067,247.381485 286.668335,259.724915 283.503265,271.985809 
	C282.967194,274.062378 282.501373,276.157104 282.023285,278.649902 
	C280.929047,280.002045 279.814606,280.947693 278.468414,282.101257 
	C260.975342,290.303772 243.830933,298.548370 226.533920,306.467010 
	C219.523087,309.676575 212.038559,311.667755 204.673935,315.107361 
	C203.490738,315.571228 202.662109,315.430328 201.439758,315.301239 
	C198.963623,312.953949 195.941406,312.490356 193.375610,311.155640 
	C185.747910,307.187897 179.362930,301.634125 173.525604,295.386658 
	C171.699692,293.432465 171.296478,290.910034 170.176300,288.274475 
	C169.795700,287.256561 169.664719,286.527771 169.512756,285.429047 
	C169.549042,245.080032 169.643463,205.100967 169.621384,165.121964 
	C169.618256,159.457764 170.558380,154.200958 173.998215,149.147583 
	C174.510712,148.508621 174.896103,148.234924 175.494537,147.849152 
	C178.595810,148.263824 181.460785,146.706451 184.672302,147.817810 
	C185.306244,149.809052 184.095642,150.557480 182.804123,151.419891 
	C179.510269,153.619339 177.057297,156.522430 175.847595,160.770477 
z"
  />
<path
    fill="#AE7700"
    opacity="1.000000"
    stroke="none"
    d="
M175.976868,160.923676 
	C175.716827,154.891663 179.413300,151.163116 184.685760,148.141251 
	C189.094086,145.624054 193.241730,145.794693 197.799774,147.851257 
	C198.335999,147.835754 198.493622,147.746094 198.851028,147.841034 
	C199.050812,148.025650 199.035843,147.968384 199.006805,147.963409 
	C203.216446,151.789246 208.463669,154.011871 213.321808,156.830811 
	C231.276993,167.249329 249.315948,177.523438 267.669983,187.923340 
	C268.016541,187.994843 268.009888,187.948624 267.988342,187.960449 
	C268.167511,188.219635 268.395569,188.438446 268.809143,188.805969 
	C269.771393,189.495972 270.575531,190.008728 271.612030,190.673096 
	C271.865204,191.915619 272.992798,193.323166 271.682465,194.011459 
	C270.379578,194.695831 269.230011,193.383957 268.109589,192.736786 
	C246.689545,180.364700 225.262756,168.004211 203.871277,155.582886 
	C197.153427,151.682053 190.495300,148.878326 182.860596,153.479797 
	C179.841354,155.299515 178.142380,158.058212 175.976868,160.923676 
z"
  />
<path
    fill="#6F4C00"
    opacity="1.000000"
    stroke="none"
    d="
M286.351562,229.987518 
	C284.472565,218.858017 280.599060,208.395065 274.931702,197.006042 
	C283.221130,200.905823 289.717133,204.606689 295.612610,209.916595 
	C298.390930,219.715805 295.884094,225.123627 286.351562,229.987518 
z"
  />
<path
    fill="#D08E00"
    opacity="1.000000"
    stroke="none"
    d="
M286.045593,234.364685 
	C271.446899,243.141571 256.835327,251.551865 241.894653,259.982361 
	C239.256165,260.542633 237.327423,262.665497 234.325470,261.339722 
	C240.494095,255.840179 247.982941,252.284195 255.104309,248.153992 
	C265.100281,242.356598 274.814026,236.047424 285.646606,231.063232 
	C286.015717,232.024292 286.024200,233.011185 286.045593,234.364685 
z"
  />
<path
    fill="#FAA901"
    opacity="1.000000"
    stroke="none"
    d="
M268.813629,188.802109 
	C268.697662,188.809357 268.456482,188.602402 268.105286,188.167297 
	C268.218506,188.166473 268.449585,188.382721 268.813629,188.802109 
z"
  />
<path
    fill="#AD7600"
    opacity="1.000000"
    stroke="none"
    d="
M203.849213,313.439331 
	C222.226410,305.376007 240.403854,297.618744 258.636566,289.993652 
	C264.905182,287.372040 270.728821,283.673340 277.847351,282.235413 
	C278.180115,282.661102 278.123535,283.013062 277.997742,283.624512 
	C269.219452,287.261414 261.122742,291.913696 252.773026,296.033539 
	C239.496765,302.584167 226.314606,309.325562 212.844406,316.194031 
	C211.646255,316.497345 210.696335,316.592926 209.386688,316.710327 
	C206.949829,316.286438 203.948853,317.526520 203.849213,313.439331 
z"
  />
<path
    fill="#885A02"
    opacity="1.000000"
    stroke="none"
    d="
M203.649368,313.059174 
	C205.587372,314.128571 207.147461,315.175690 208.867249,316.477539 
	C203.287064,321.380096 196.226562,323.589478 189.858841,327.079834 
	C185.646194,329.388885 181.281967,331.421417 176.707062,333.720276 
	C168.871887,326.506134 168.687622,317.222443 169.709793,307.266602 
	C171.173752,306.033905 172.692474,305.556641 174.053955,306.420471 
	C182.055984,311.497406 191.366791,311.244812 200.594299,312.977722 
	C201.757980,312.993896 202.514709,313.015381 203.649368,313.059174 
z"
  />
<path
    fill="#C48600"
    opacity="1.000000"
    stroke="none"
    d="
M200.755280,312.739471 
	C192.148926,315.629181 183.766113,314.327454 175.742310,309.981384 
	C174.002289,309.038940 172.254990,308.109955 170.175934,307.025146 
	C169.813461,300.888794 169.786118,294.902039 169.842728,288.450317 
	C178.578262,298.083008 188.637512,306.425079 200.755280,312.739471 
z"
  />
<path
    fill="#FAA901"
    opacity="1.000000"
    stroke="none"
    d="
M198.944641,147.986130 
	C199.050812,148.025650 198.613373,147.977844 198.395874,147.951630 
	C198.401535,147.882935 198.621567,147.889984 198.944641,147.986130 
z"
  />
<path
    fill="#6B4900"
    opacity="1.000000"
    stroke="none"
    d="
M175.784607,277.228424 
	C174.524857,265.349792 175.312164,253.877335 175.156067,242.419495 
	C175.022507,232.614838 175.149002,222.806641 175.199478,212.537781 
	C177.349838,213.453888 177.161987,215.846924 177.704010,217.871124 
	C181.007767,230.208908 185.352295,241.950699 194.659393,251.291534 
	C202.345901,259.005920 211.395279,263.115234 222.329788,263.040833 
	C223.968231,263.029663 225.609344,263.412903 227.610138,263.802002 
	C228.394745,265.759979 227.032257,266.816559 225.961823,267.378632 
	C215.368790,272.941071 205.302994,279.437317 194.727493,285.011810 
	C185.651733,289.795715 180.119873,287.499054 175.784607,277.228424 
z"
  />
<path
    fill="#9F6D00"
    opacity="1.000000"
    stroke="none"
    d="
M175.583481,277.162537 
	C182.967239,286.428436 187.119934,287.212311 197.827774,281.082764 
	C207.652832,275.458527 217.506836,269.884827 227.659576,264.139587 
	C229.085739,263.386841 230.200424,262.783356 231.620117,262.095642 
	C232.381500,261.560455 232.996155,261.513702 233.799332,261.170532 
	C234.027084,260.974274 234.042603,261.014740 234.022827,261.014038 
	C236.234131,260.699066 238.465195,260.384796 241.130890,260.036560 
	C225.646988,269.289398 209.906754,278.902496 193.740616,287.736145 
	C184.570679,292.746918 177.463638,288.334625 175.583481,277.162537 
z"
  />
<path
    fill="#D08E00"
    opacity="1.000000"
    stroke="none"
    d="
M233.735123,261.033264 
	C233.517059,261.263428 233.007019,261.552582 232.211060,261.926575 
	C232.431137,261.705017 232.937149,261.398651 233.735123,261.033264 
z"
  />
</svg>
